<?xml version="1.0" standalone="no"?>
<!DOCTYPE svg PUBLIC "-//W3C//DTD SVG 1.1//EN" "http://www.w3.org/Graphics/SVG/1.1/DTD/svg11.dtd" >
<svg xmlns="http://www.w3.org/2000/svg" xmlns:xlink="http://www.w3.org/1999/xlink" version="1.1">
<metadata>
Created by FontForge 20161013 at Sun Oct 25 12:53:29 2015
 By ,,,
Copyright (c) 2007 Pol Udomwittayanukul. All rights reserved.
</metadata>
<defs>
<font id="Sawasdee" horiz-adv-x="0" >
  <font-face 
    font-family="Sawasdee"
    font-weight="400"
    font-stretch="normal"
    units-per-em="2048"
    panose-1="2 0 5 3 0 0 0 0 0 0"
    ascent="1536"
    descent="-512"
    x-height="1014"
    cap-height="1493"
    bbox="-1220 -848 2642 2368"
    underline-thickness="102"
    underline-position="-357"
    unicode-range="U+0020-FB04"
  />
<missing-glyph horiz-adv-x="748" 
d="M68 0v1365h544v-1365h-544zM136 68h408v1229h-408v-1229z" />
    <glyph glyph-name="ff" unicode="ff" horiz-adv-x="1098" 
d="M510 1433q165 0 253 -110q53 78 132 124t171 46v-60q-112 0 -196 -105t-84 -238v-76h280l-25 -89h-251v-925h-89v925h-468v-925h-90v925h-89v89h89v16q0 169 106 286t261 117zM233 1014h465v76q0 101 47 200q-70 82 -196 82q-135 0 -225.5 -98t-90.5 -244v-16z" />
    <glyph glyph-name="fi" unicode="fi" horiz-adv-x="923" 
d="M233 1014h555v-1014h-87v925h-468v-925h-90v925h-89v89h89v76q0 169 106 286t261 117q76 0 136.5 -22t96 -57.5t54.5 -74t21 -77.5v-8q0 -30 -21 -51t-52 -21q-29 0 -50.5 21.5t-21.5 50.5q0 28 21.5 49.5t50.5 21.5q16 0 22 -2q-31 54 -89.5 82t-128.5 28
q-135 0 -225.5 -99t-90.5 -244v-76z" />
    <glyph glyph-name="fl" unicode="fl" horiz-adv-x="927" 
d="M788 0h-87v1433h-188q-112 0 -196 -105t-84 -238v-76h280l-30 -89h-250v-925h-90v925h-89v89h89v76q0 165 107 284t260 119h278v-1493z" />
    <glyph glyph-name="ffi" unicode="ffi" horiz-adv-x="1481" 
d="M790 1014h555v-1014h-85v925h-470v-925h-89v925h-468v-925h-90v925h-89v89h89v16q0 169 106 286t261 117q166 0 257 -110q51 78 129.5 124t171.5 46q76 0 136.5 -22t96 -57.5t54.5 -74t22 -77.5v-8q0 -29 -21.5 -50.5t-50.5 -21.5q-30 0 -51 21.5t-21 50.5t21 50t51 21
q13 0 20 -2q-33 54 -90 82t-127 28q-134 0 -226 -99t-92 -244v-76zM233 1030v-16h468v76q0 114 44 200q-70 82 -196 82q-135 0 -225.5 -98t-90.5 -244z" />
    <glyph glyph-name="ffl" unicode="ffl" horiz-adv-x="1487" 
d="M1072 1014l-31 -89h-251v-925h-89v925h-468v-925h-90v925h-89v89h89v16q0 169 106 286t261 117q166 0 257 -110q51 78 129.5 124t171.5 46h277v-1493h-85v1433h-152q-134 0 -226 -99t-92 -244v-76h282zM233 1030v-16h468v76q0 114 44 200q-70 82 -196 82
q-135 0 -225.5 -98t-90.5 -244z" />
    <glyph glyph-name=".notdef" horiz-adv-x="748" 
d="M68 0v1365h544v-1365h-544zM136 68h408v1229h-408v-1229z" />
    <glyph glyph-name=".null" 
 />
    <glyph glyph-name="nonmarkingreturn" horiz-adv-x="682" 
 />
    <glyph glyph-name="space" unicode=" " horiz-adv-x="731" 
 />
    <glyph glyph-name="exclam" unicode="!" horiz-adv-x="498" 
d="M280 269h-58l-32 1224h122zM168 69q0 34 24 58.5t58 24.5t58.5 -24.5t24.5 -58.5q0 -33 -25 -58.5t-58 -25.5t-57.5 25.5t-24.5 58.5z" />
    <glyph glyph-name="quotedbl" unicode="&#x22;" horiz-adv-x="690" 
d="M258 1164h-61l-29 387h118zM495 1164h-59l-30 387h120z" />
    <glyph glyph-name="numbersign" unicode="#" horiz-adv-x="1066" 
d="M611 0h-90l113 463h-327l-110 -463h-92l110 463h-215v90h235l94 387h-228v90h248l110 463h94l-113 -463h327l111 463h91l-110 -463h209v-90h-233l-92 -387h222v-90h-241zM325 553h326l92 387h-324z" />
    <glyph glyph-name="dollar" unicode="$" horiz-adv-x="1179" 
d="M643 -150h-94v123q-76 6 -144.5 35.5t-127.5 82t-99.5 136t-53.5 187.5l89 13q22 -169 114.5 -259t221.5 -104v742q-72 32 -119 59t-95 68.5t-72 96.5t-24 125q0 136 86 235t224 112v134h89v-134q109 -14 199 -86t130 -190l-83 -28q-32 91 -97 146t-144 68v-543
q164 -69 233 -115q167 -111 182 -290q1 -18 1 -37q0 -180 -121 -301.5t-295 -140.5v-135zM638 763v-699q138 21 233.5 117.5t95.5 239.5q0 56 -19 103.5t-46.5 80t-75.5 64t-87.5 50t-100.5 44.5zM549 902v501q-100 -13 -160 -84t-60 -170q0 -87 56.5 -142t163.5 -105z" />
    <glyph glyph-name="percent" unicode="%" horiz-adv-x="1568" 
d="M1155 566q121 0 207 -85t86 -206t-86 -206.5t-207 -85.5t-207.5 85.5t-86.5 206.5q0 120 86.5 205.5t207.5 85.5zM951 275q0 -83 59.5 -142t144.5 -59t144.5 59t59.5 142t-59.5 141t-144.5 58t-144.5 -58t-59.5 -141zM414 1504q121 0 207 -86t86 -207t-86 -206t-207 -85
t-205.5 85t-84.5 206t84.5 207t205.5 86zM213 1211q0 -82 58.5 -140.5t142.5 -58.5q85 0 144.5 58.5t59.5 140.5q0 84 -59.5 142.5t-144.5 58.5q-84 0 -142.5 -58.5t-58.5 -142.5zM1260 1493h110l-1058 -1493h-113z" />
    <glyph glyph-name="ampersand" unicode="&#x26;" horiz-adv-x="1354" 
d="M1155 534h96q0 -167 -96 -303l163 -231h-109l-115 158q-76 -81 -182 -127t-225 -46q-153 0 -282.5 74t-205 201.5t-75.5 277.5q0 169 95.5 308t248.5 201q-47 93 -47 182q0 126 87 205t218 79q129 0 220.5 -84t91.5 -238h-89q0 118 -66 175.5t-157 57.5q-96 0 -156 -54
t-60 -141q0 -88 65 -188l525 -734q55 103 55 227zM1045 231l-528 736q-136 -49 -220 -167.5t-84 -265.5q0 -191 138.5 -326.5t335.5 -135.5q106 0 199 42.5t159 116.5z" />
    <glyph glyph-name="quotesingle" unicode="'" horiz-adv-x="451" 
d="M258 1164h-61l-29 387h118z" />
    <glyph glyph-name="parenleft" unicode="(" horiz-adv-x="487" 
d="M352 1574h69q-197 -442 -197 -905t203 -938h-68q-235 476 -235 952q0 463 228 891z" />
    <glyph glyph-name="parenright" unicode=")" horiz-adv-x="457" 
d="M69 1574h68q230 -435 230 -891q0 -464 -235 -952h-70q205 476 205 938q0 454 -198 905z" />
    <glyph glyph-name="asterisk" unicode="*" horiz-adv-x="910" 
d="M410 1766h94v-208l222 54l19 -87l-215 -49l135 -203l-74 -49l-134 200l-135 -200l-74 49l135 203l-215 49l20 87l222 -54v208z" />
    <glyph glyph-name="plus" unicode="+" horiz-adv-x="1036" 
d="M564 349h-90v352h-350v89h350v354h90v-354h352v-89h-352v-352z" />
    <glyph glyph-name="comma" unicode="," horiz-adv-x="523" 
d="M168 69q0 34 24 58.5t58 24.5q41 0 75 -31.5t34 -90.5q0 -47 -15 -92t-36.5 -76t-43 -55.5t-36.5 -36.5l-15 -12h-45q45 37 86 112.5t41 129.5q-20 -15 -45 -15q-33 0 -57.5 25.5t-24.5 58.5z" />
    <glyph glyph-name="hyphen" unicode="-" horiz-adv-x="856" 
d="M737 643v-90h-613v90h613z" />
    <glyph glyph-name="period" unicode="." horiz-adv-x="498" 
d="M168 69q0 34 24 58.5t58 24.5t58.5 -24.5t24.5 -58.5q0 -33 -25 -58.5t-58 -25.5t-57.5 25.5t-24.5 58.5z" />
    <glyph glyph-name="slash" unicode="/" horiz-adv-x="1168" 
d="M1059 1493h112l-1062 -1493h-109z" />
    <glyph glyph-name="zero" unicode="0" horiz-adv-x="1192" 
d="M1092 745q0 -200 -62 -373t-176.5 -280t-255.5 -107q-142 0 -257.5 107t-177.5 280t-62 373q0 150 37 288.5t101 243t158 167t201 62.5q141 0 255.5 -106.5t176.5 -280t62 -374.5zM190 745q0 -142 34.5 -268.5t91.5 -213.5t131 -138t151 -51q61 0 120.5 32t110.5 92.5
t90 141.5t61.5 186t22.5 219q0 143 -34.5 270t-91 214t-130 137.5t-149.5 50.5q-77 0 -151 -50.5t-131 -137.5t-91.5 -214t-34.5 -270z" />
    <glyph glyph-name="one" unicode="1" horiz-adv-x="1192" 
d="M553 0l-4 1332l-162 -97l-45 79l301 179v-1493h-90z" />
    <glyph glyph-name="two" unicode="2" horiz-adv-x="1192" 
d="M1074 0h-973v43q0 103 46.5 193t120.5 156t164 126.5t179.5 116.5t163.5 113t120.5 129.5t46.5 154.5q0 163 -100.5 274t-241.5 111q-143 0 -245.5 -111.5t-102.5 -273.5h-88q0 128 57.5 237t157.5 173t219 64q118 0 218 -64t157 -173t57 -237q0 -72 -27 -137.5
t-73 -117.5t-106 -100t-127 -91t-134.5 -85t-131 -87.5t-114 -93t-84.5 -106.5t-43 -124h884v-90z" />
    <glyph glyph-name="three" unicode="3" horiz-adv-x="1192" 
d="M137 446h94q0 -153 108 -262.5t261 -109.5q152 0 260.5 109.5t108.5 262.5q0 151 -108.5 259.5t-260.5 108.5v90q112 0 190.5 69.5t78.5 179.5q0 109 -78.5 186.5t-190.5 77.5t-190.5 -77.5t-78.5 -186.5h-89q0 147 105 250t253 103t253.5 -103t105.5 -250
q0 -95 -46 -170.5t-125 -121.5q121 -54 195 -167t74 -248q0 -126 -62 -232t-167.5 -167.5t-229.5 -61.5q-192 0 -326.5 134.5t-134.5 326.5z" />
    <glyph glyph-name="four" unicode="4" horiz-adv-x="1192" 
d="M844 367v876l-665 -876h665zM933 0h-89v278h-844l933 1233v-1144h167l-32 -89h-135v-278z" />
    <glyph glyph-name="five" unicode="5" horiz-adv-x="1192" 
d="M916 1403h-636l-41 -499q70 75 161.5 117t192.5 42q138 0 253.5 -73t181.5 -197.5t66 -271.5q0 -146 -66 -269.5t-181.5 -196t-253.5 -72.5q-187 0 -327.5 132t-167.5 325h90q27 -158 141.5 -263t263.5 -105q170 0 291.5 132t121.5 322q0 189 -121.5 320.5t-291.5 131.5
q-113 0 -209 -63.5t-151 -169.5h-99l63 748h750z" />
    <glyph glyph-name="six" unicode="6" horiz-adv-x="1192" 
d="M1006 540q0 190 -121.5 322t-291.5 132q-169 0 -290.5 -132t-121.5 -322q0 -189 121.5 -321t290.5 -132q170 0 291.5 132t121.5 321zM620 1504h108l-307 -457q86 34 172 34q138 0 253.5 -73.5t181.5 -197.5t66 -270t-66 -270t-181.5 -197t-253.5 -73q-137 0 -252.5 73
t-182 197t-66.5 270q0 86 21 162.5t73.5 167.5t103.5 164t152 214t178 256z" />
    <glyph glyph-name="seven" unicode="7" horiz-adv-x="1192" 
d="M164 1493h1000l-669 -1493h-99l631 1403h-893z" />
    <glyph glyph-name="eight" unicode="8" horiz-adv-x="1192" 
d="M598 1506q145 0 249 -101t104 -243q0 -94 -46 -172.5t-124 -122.5q123 -55 199.5 -169t76.5 -252q0 -126 -62 -232t-167.5 -167.5t-229.5 -61.5q-192 0 -326.5 134.5t-134.5 326.5q0 139 75.5 252.5t199.5 168.5q-77 44 -123.5 123t-46.5 172q0 142 104.5 243t251.5 101z
M226 446q0 -153 109 -262.5t263 -109.5q151 0 260 109.5t109 262.5q0 151 -109 259.5t-260 108.5q-153 0 -262.5 -108.5t-109.5 -259.5zM598 904q109 0 186 76t77 182q0 105 -77.5 180t-185.5 75q-111 0 -189 -75t-78 -180q0 -106 78 -182t189 -76z" />
    <glyph glyph-name="nine" unicode="9" horiz-adv-x="1192" 
d="M181 965q0 -191 121.5 -323t290.5 -132q170 0 291.5 132t121.5 323q0 189 -121.5 320.5t-291.5 131.5q-169 0 -290.5 -131.5t-121.5 -320.5zM566 0h-107l308 457q-86 -34 -174 -34q-137 0 -252.5 73.5t-182 198t-66.5 270.5q0 145 66.5 269t182 197t252.5 73
q138 0 253.5 -73t181.5 -196.5t66 -269.5q0 -72 -17.5 -142t-44.5 -129t-80 -140.5t-101.5 -149t-132.5 -185t-152 -219.5z" />
    <glyph glyph-name="colon" unicode=":" horiz-adv-x="498" 
d="M168 69q0 34 24 58.5t58 24.5t58.5 -24.5t24.5 -58.5q0 -33 -25 -58.5t-58 -25.5t-57.5 25.5t-24.5 58.5zM168 949q0 34 24 58.5t58 24.5t58.5 -24.5t24.5 -58.5t-24.5 -58t-58.5 -24t-58 24t-24 58z" />
    <glyph glyph-name="semicolon" unicode=";" horiz-adv-x="498" 
d="M168 69q0 34 24 58.5t58 24.5q41 0 75 -31.5t34 -90.5q0 -47 -15 -92t-36.5 -76t-43 -55.5t-36.5 -36.5l-15 -12h-45q45 37 86 112.5t41 129.5q-20 -15 -45 -15q-33 0 -57.5 25.5t-24.5 58.5zM168 949q0 34 24 58.5t58 24.5t58.5 -24.5t24.5 -58.5t-24.5 -58t-58.5 -24
t-58 24t-24 58z" />
    <glyph glyph-name="less" unicode="&#x3c;" horiz-adv-x="1183" 
d="M1126 0h-175l-827 508l827 506h175l-831 -506z" />
    <glyph glyph-name="equal" unicode="=" horiz-adv-x="1036" 
d="M916 761v-90h-792v90h792zM916 521v-89h-792v89h792z" />
    <glyph glyph-name="greater" unicode="&#x3e;" horiz-adv-x="1203" 
d="M295 0h-171l827 508l-827 506h171l831 -506z" />
    <glyph glyph-name="question" unicode="?" horiz-adv-x="1036" 
d="M406 69q0 34 25.5 58.5t59.5 24.5q33 0 57.5 -25t24.5 -58t-25 -58.5t-57 -25.5q-34 0 -59.5 25.5t-25.5 58.5zM538 307h-90v150q0 71 21 136t54 115t73.5 96.5t81 86.5t73.5 78t54 79.5t21 81.5q0 127 -82 207t-204 80q-138 0 -232.5 -89t-94.5 -198h-89q0 150 122 263
t294 113q162 0 269 -106t107 -270q0 -52 -21 -102t-54 -91.5t-73.5 -83t-81 -85t-73.5 -89t-54 -103t-21 -119.5v-150z" />
    <glyph glyph-name="at" unicode="@" horiz-adv-x="2029" 
d="M1448 1014h94l-118 -497q-27 -85 -27 -158q0 -128 62.5 -207.5t136.5 -79.5q29 0 58 13.5t59.5 47t53.5 83.5t38 130t15 180q0 182 -65 347t-173.5 282.5t-256 187t-306.5 69.5q-162 0 -310.5 -71.5t-257 -192.5t-172.5 -290t-64 -356t64 -356.5t172.5 -291t257 -193
t310.5 -71.5q202 0 387 115l47 -74q-199 -126 -434 -126q-184 0 -350 79.5t-285.5 213.5t-189.5 318.5t-70 387.5t70 388t189.5 319t285.5 213.5t350 79.5q144 0 279.5 -49.5t245 -140.5t192 -211.5t128 -269.5t45.5 -307q0 -120 -20.5 -217t-52.5 -157t-74 -100t-83 -56
t-83 -16q-102 0 -181 83.5t-101 211.5q-89 -131 -220.5 -211.5t-269.5 -80.5q-160 0 -259 107t-99 275q0 123 54 245t139.5 212.5t197 147.5t220.5 57q112 0 196.5 -55t125.5 -150zM1083 938q-92 0 -186.5 -50t-168 -128.5t-120 -183.5t-46.5 -209q0 -130 71.5 -211.5
t192.5 -81.5q91 0 185.5 48.5t169 126.5t122 184t47.5 212q0 129 -73 211t-194 82z" />
    <glyph glyph-name="A" unicode="A" horiz-adv-x="1322" 
d="M365 553h602l-302 725zM1003 463h-681l-190 -463h-96l626 1511l628 -1511h-96z" />
    <glyph glyph-name="B" unicode="B" horiz-adv-x="1293" 
d="M258 90h434q165 0 278 102.5t113 245.5t-113 245.5t-278 102.5h-434v-696zM969 1137q0 108 -85.5 187t-210.5 79h-415v-528h415q126 0 211 76.5t85 185.5zM168 1493h513q156 0 269 -105.5t113 -252.5q0 -92 -48.5 -170t-130.5 -126q130 -50 209.5 -158t79.5 -243
q0 -119 -65 -220t-175.5 -159.5t-240.5 -58.5h-524v1493z" />
    <glyph glyph-name="C" unicode="C" horiz-adv-x="1608" 
d="M1417 346l72 -49q-104 -143 -264 -225.5t-345 -82.5q-154 0 -294 60t-241 162t-161 243t-60 296t60 296t161 243t241 162t294 60q184 0 344 -83.5t265 -227.5l-72 -53q-93 125 -233.5 197.5t-303.5 72.5q-182 0 -335.5 -90t-242.5 -244.5t-89 -337.5q0 -136 52.5 -260
t141.5 -214t213 -143.5t260 -53.5q163 0 303.5 73t233.5 199z" />
    <glyph glyph-name="D" unicode="D" horiz-adv-x="1346" 
d="M258 90h210q183 0 336.5 86t243 237t89.5 332q0 183 -89.5 334.5t-243 237.5t-336.5 86h-210v-1313zM168 0v1493h300q154 0 294 -58t242 -157.5t162 -238.5t60 -294q0 -206 -102 -377.5t-276 -269.5t-380 -98h-300z" />
    <glyph glyph-name="E" unicode="E" horiz-adv-x="1094" 
d="M974 912v-90h-716v-732h774v-90h-864v1493h868v-90h-778v-491h716z" />
    <glyph glyph-name="F" unicode="F" horiz-adv-x="1094" 
d="M974 912v-90h-716v-822h-90v1493h868v-90h-778v-491h716z" />
    <glyph glyph-name="G" unicode="G" horiz-adv-x="1758" 
d="M1489 1200l-72 -53q-93 125 -233.5 197.5t-303.5 72.5q-182 0 -335.5 -90t-242.5 -244.5t-89 -337.5q0 -136 52.5 -260t141.5 -214t213 -143.5t260 -53.5q174 0 324 83.5t241 227.5t102 316h-667v89h758v-45q0 -155 -60 -295.5t-161.5 -242.5t-242 -162t-294.5 -60
t-294 60t-241 162t-161 242.5t-60 295.5t60 296t161 243t241 162t294 60q183 0 344 -82t265 -224z" />
    <glyph glyph-name="H" unicode="H" horiz-adv-x="1393" 
d="M1139 1493h90v-1493h-90v822h-881v-822h-90v1493h90v-581h881v581z" />
    <glyph glyph-name="I" unicode="I" horiz-adv-x="422" 
d="M258 0h-90v1493h90v-1493z" />
    <glyph glyph-name="J" unicode="J" horiz-adv-x="1021" 
d="M773 1493h84v-1106q0 -165 -106.5 -283.5t-259.5 -118.5q-154 0 -260.5 118t-106.5 284h89q0 -130 82.5 -221.5t197.5 -91.5t197.5 91.5t82.5 221.5v1106z" />
    <glyph glyph-name="K" unicode="K" horiz-adv-x="1149" 
d="M168 1493h90v-634l693 634h134l-604 -551l658 -942h-116l-604 884l-161 -147v-737h-90v1493z" />
    <glyph glyph-name="L" unicode="L" horiz-adv-x="1094" 
d="M1036 0h-868v1493h90v-1403h778v-90z" />
    <glyph glyph-name="M" unicode="M" horiz-adv-x="1732" 
d="M124 0h-88l286 1511l545 -1296l554 1296l278 -1511h-94l-219 1200l-525 -1217l-509 1217z" />
    <glyph glyph-name="N" unicode="N" horiz-adv-x="1678" 
d="M168 0v1511l1256 -1309v1291h89v-1510l-1255 1307v-1290h-90z" />
    <glyph glyph-name="O" unicode="O" horiz-adv-x="1758" 
d="M880 1506q154 0 294.5 -60t242 -162t161.5 -243t60 -296t-60 -295.5t-161.5 -242.5t-242 -162t-294.5 -60t-294 60t-241 162t-161 242.5t-60 295.5t60 296t161 243t241 162t294 60zM213 745q0 -136 52.5 -260t141.5 -214t213 -143.5t260 -53.5q137 0 261 53.5t213 143.5
t142 214t53 260q0 183 -89 337.5t-243.5 244.5t-336.5 90t-335.5 -90t-242.5 -244.5t-89 -337.5z" />
    <glyph glyph-name="P" unicode="P" horiz-adv-x="1203" 
d="M168 0v1495h530q161 0 273 -116t112 -279q0 -165 -111.5 -282t-270.5 -117h-443v-701h-90zM258 795h443q119 0 204.5 89t85.5 216t-86 216.5t-207 89.5h-440v-611z" />
    <glyph glyph-name="Q" unicode="Q" horiz-adv-x="1758" 
d="M1121 508h117l159 -188q152 184 152 425q0 183 -89 337.5t-243.5 244.5t-336.5 90t-335.5 -90t-242.5 -244.5t-89 -337.5q0 -136 52.5 -260t141.5 -214t213 -143.5t260 -53.5q259 0 455 178zM1664 0h-122l-152 181q-103 -93 -234 -144.5t-276 -51.5q-154 0 -294 60
t-241 162t-161 242.5t-60 295.5t60 296t161 243t241 162t294 60t294.5 -60t242 -162t161.5 -243t60 -296q0 -284 -185 -497z" />
    <glyph glyph-name="R" unicode="R" horiz-adv-x="1203" 
d="M168 0v1493h530q161 0 273 -116.5t112 -282.5q0 -141 -87.5 -250.5t-218.5 -136.5l387 -707h-101l-384 701h-421v-701h-90zM258 790h443q119 0 204.5 89t85.5 215q0 128 -86 218.5t-207 90.5h-440v-613z" />
    <glyph glyph-name="S" unicode="S" horiz-adv-x="1177" 
d="M965 1229l-85 -29q-35 107 -115.5 162t-175.5 55q-115 0 -187.5 -74t-72.5 -181q0 -55 25 -100t67 -77t96.5 -59.5t115 -52.5t121 -52.5t115 -63.5t96.5 -80t67 -108t25 -142q0 -130 -67 -233t-174 -157t-231 -54q-81 0 -155 26t-138 77.5t-109 137.5t-59 197l89 11
q25 -180 128.5 -268.5t243.5 -88.5q99 0 185 41.5t141.5 124t55.5 189.5q0 67 -25 121t-67 91t-96.5 68t-115 56.5t-121 51.5t-115 58t-96.5 70t-67 93.5t-25 124.5q0 144 98 245.5t252 101.5q120 0 225.5 -74.5t150.5 -207.5z" />
    <glyph glyph-name="T" unicode="T" horiz-adv-x="982" 
d="M925 1493v-90h-387v-1403h-90v1403h-388v90h865z" />
    <glyph glyph-name="U" unicode="U" horiz-adv-x="1393" 
d="M168 1493h90v-927q0 -135 61 -249t162.5 -178.5t219.5 -64.5t218.5 64.5t160 178t59.5 249.5v927h90v-927q0 -157 -70.5 -290.5t-193 -212t-267.5 -78.5t-267 78.5t-192.5 212t-70.5 290.5v927z" />
    <glyph glyph-name="V" unicode="V" horiz-adv-x="1286" 
d="M1155 1493h99l-600 -1510l-618 1510h96l519 -1269z" />
    <glyph glyph-name="W" unicode="W" horiz-adv-x="1965" 
d="M25 1493h89l439 -1235l430 1253l429 -1253l435 1235h96l-531 -1510l-427 1246l-428 -1246z" />
    <glyph glyph-name="X" unicode="X" horiz-adv-x="964" 
d="M83 1493h103l297 -589l298 589h103l-350 -687l408 -806h-100l-359 705l-357 -705h-101l407 806z" />
    <glyph glyph-name="Y" unicode="Y" horiz-adv-x="1228" 
d="M36 1493h105l474 -752l475 752h104l-534 -848v-645h-89v645z" />
    <glyph glyph-name="Z" unicode="Z" horiz-adv-x="1185" 
d="M134 1493h996l-927 -1403h950l-32 -90h-1085l929 1403h-860z" />
    <glyph glyph-name="bracketleft" unicode="[" horiz-adv-x="433" 
d="M258 1493v-1717h178v-90h-268v1897h268v-90h-178z" />
    <glyph glyph-name="backslash" unicode="\" horiz-adv-x="1168" 
d="M0 1493h109l1062 -1493h-112z" />
    <glyph glyph-name="bracketright" unicode="]" horiz-adv-x="433" 
d="M179 1493h-179v90h269v-1897h-269v90h179v1717z" />
    <glyph glyph-name="asciicircum" unicode="^" horiz-adv-x="1196" 
d="M553 1493h101l423 -748h-103l-372 654l-376 -654h-102z" />
    <glyph glyph-name="underscore" unicode="_" horiz-adv-x="970" 
d="M974 0v-90h-974v90h974z" />
    <glyph glyph-name="grave" unicode="`" horiz-adv-x="425" 
d="M284 1229h-69l-143 294h114z" />
    <glyph glyph-name="a" unicode="a" horiz-adv-x="1060" 
d="M920 0h-96q-18 57 -18 134v79q-72 -100 -172.5 -165t-212.5 -65q-81 0 -144.5 25.5t-100.5 67.5t-56 89.5t-19 96.5q0 51 15.5 94t40 73.5t65 55t78 40t93.5 27t97 17t102 8.5t96.5 3.5t90.5 0.5h27q-5 165 -97.5 263t-213.5 98q-71 0 -138.5 -37t-117.5 -108l-71 47
q61 94 147 141t180 47q76 0 146.5 -30.5t126.5 -86t90.5 -142.5t36.5 -192v-447q0 -87 25 -134zM421 72q115 0 223 77t162 176v192q-47 -1 -78.5 -2t-86 -4.5t-92.5 -8t-88.5 -14.5t-85.5 -22.5t-72.5 -32t-60.5 -43t-37.5 -56.5t-14.5 -72q0 -72 60 -131t171 -59z" />
    <glyph glyph-name="b" unicode="b" horiz-adv-x="1215" 
d="M239 0h-96q25 50 25 134v1359h90v-739q37 109 148.5 192.5t227.5 83.5q127 0 233 -71.5t166.5 -191.5t60.5 -259q0 -140 -60.5 -260.5t-166.5 -191.5t-233 -71q-114 0 -226 85.5t-150 189.5v-126q0 -68 -19 -134zM258 508q0 -180 111 -307t265 -127q152 0 264 127.5
t112 306.5q0 180 -112 306t-264 126q-154 0 -265 -126t-111 -306z" />
    <glyph glyph-name="c" unicode="c" horiz-adv-x="1098" 
d="M902 280l76 -45q-62 -112 -166.5 -179t-226.5 -67q-127 0 -233.5 70.5t-167 190.5t-60.5 260q0 141 60.5 261t167 190.5t233.5 70.5q122 0 226.5 -67t166.5 -179l-76 -45q-53 92 -136.5 145.5t-180.5 53.5q-153 0 -265 -124t-112 -303q0 -180 112 -306t265 -126
q97 0 181 53t136 146z" />
    <glyph glyph-name="d" unicode="d" horiz-adv-x="1215" 
d="M1074 0h-96q-17 59 -17 134v126q-38 -104 -150.5 -189.5t-225.5 -85.5q-127 0 -233.5 71t-167 191.5t-60.5 260.5t60.5 259.5t167 191t233.5 71.5q115 0 227 -83.5t149 -192.5v739h89v-1359q0 -86 24 -134zM961 508q0 180 -111 306t-265 126q-153 0 -265 -126t-112 -306
q0 -179 112 -306.5t265 -127.5t264.5 127t111.5 307z" />
    <glyph glyph-name="e" unicode="e" horiz-adv-x="1177" 
d="M222 593h737q-28 151 -132 249t-238 98q-133 0 -236.5 -98t-130.5 -249zM1057 508h-849q0 -179 112 -304t265 -125q101 0 198 54t148 145l79 -45q-61 -109 -180 -178.5t-245 -69.5q-127 0 -233.5 71t-167 191.5t-60.5 260.5q0 139 61.5 259t169 191.5t234.5 71.5
q120 0 223.5 -64.5t167.5 -173.5t75 -239z" />
    <glyph glyph-name="f" unicode="f" horiz-adv-x="532" 
d="M164 0v925h-85v89h85v90q0 166 108.5 284t261.5 118v-58q-112 0 -197 -105.5t-85 -238.5v-90h282l-30 -89h-252v-925h-88z" />
    <glyph glyph-name="g" unicode="g" horiz-adv-x="1215" 
d="M978 1014h96q-24 -46 -24 -134v-880q0 -140 -62.5 -260t-170.5 -190.5t-236 -70.5q-176 0 -306 130l65 62q106 -103 245 -103q154 0 265 126t111 306v260q-37 -109 -148.5 -192t-227.5 -83q-127 0 -233.5 71t-167 191.5t-60.5 260.5t60.5 259.5t167 191t233.5 71.5
q114 0 226 -85.5t150 -190.5v126q0 75 17 134zM955 508q0 180 -111.5 306t-264.5 126q-154 0 -265 -126t-111 -306t111.5 -307t264.5 -127t264.5 127.5t111.5 306.5z" />
    <glyph glyph-name="h" unicode="h" horiz-adv-x="1071" 
d="M168 0v1493h90v-767q52 122 151 213t191 91q102 0 172.5 -57t102 -146t31.5 -201v-626h-88v626q0 55 -10.5 106t-33.5 100t-68.5 78.5t-107.5 29.5q-59 0 -122.5 -46t-110 -112.5t-77 -141.5t-30.5 -132v-508h-90z" />
    <glyph glyph-name="i" unicode="i" horiz-adv-x="422" 
d="M132 1254q0 33 23.5 57t57.5 24q33 0 56.5 -24t23.5 -57q0 -34 -23 -57.5t-57 -23.5t-57.5 23.5t-23.5 57.5zM258 0h-90v1014h90v-1014z" />
    <glyph glyph-name="j" unicode="j" horiz-adv-x="415" 
d="M168 1014h90v-1012q0 -129 -84 -221.5t-204 -92.5v77q81 0 139.5 70.5t58.5 166.5v1012zM128 1254q0 33 23.5 57t56.5 24t57 -24t24 -57q0 -34 -24 -57.5t-57 -23.5t-56.5 23.5t-23.5 57.5z" />
    <glyph glyph-name="k" unicode="k" horiz-adv-x="950" 
d="M258 0h-90v1493h90v-886l449 407h135l-428 -388l537 -626h-116l-486 566l-91 -81v-485z" />
    <glyph glyph-name="l" unicode="l" horiz-adv-x="422" 
d="M258 0h-90v1493h90v-1493z" />
    <glyph glyph-name="m" unicode="m" horiz-adv-x="1595" 
d="M143 1014h96q19 -66 19 -134v-146q48 118 138 207t170 89q119 0 191 -82.5t91 -213.5q50 122 134.5 207.5t166.5 85.5q94 0 159.5 -58.5t94 -147t28.5 -197.5v-624h-90v624q0 54 -9 105t-29.5 100t-60.5 79t-95 30q-67 0 -140 -75.5t-119 -177.5t-46 -181v-504h-90v626
q0 55 -9 106t-29 100t-60.5 78.5t-96.5 29.5q-62 0 -133.5 -72t-118.5 -174t-47 -186v-508h-90v880q0 86 -25 134z" />
    <glyph glyph-name="n" unicode="n" horiz-adv-x="1071" 
d="M143 1014h96q19 -66 19 -134v-152q55 125 152.5 213.5t189.5 88.5q102 0 172.5 -57t102 -146t31.5 -201v-626h-88v626q0 55 -10.5 106t-33.5 100t-68.5 78.5t-107.5 29.5q-59 0 -122.5 -46t-110 -112.5t-77 -141.5t-30.5 -132v-508h-90v880q0 86 -25 134z" />
    <glyph glyph-name="o" unicode="o" horiz-adv-x="1282" 
d="M643 1030q105 0 201 -41t166 -111t111 -167t41 -203q0 -107 -41 -204t-111 -166.5t-166 -111t-201 -41.5q-215 0 -367 153t-152 370q0 142 69.5 262.5t189 190t260.5 69.5zM213 508q0 -179 126.5 -306.5t305.5 -127.5t305.5 127.5t126.5 306.5q0 178 -126.5 305
t-305.5 127t-305.5 -127t-126.5 -305z" />
    <glyph glyph-name="p" unicode="p" horiz-adv-x="1215" 
d="M143 1014h96q19 -66 19 -134v-126q38 105 150 190.5t226 85.5q127 0 233 -71.5t166.5 -191.5t60.5 -259q0 -140 -60.5 -260.5t-166.5 -191.5t-233 -71q-116 0 -227.5 82.5t-148.5 192.5v-761h-90v1381q0 86 -25 134zM258 508q0 -180 111 -307t265 -127q152 0 264 127.5
t112 306.5q0 180 -112 306t-264 126q-154 0 -265 -126t-111 -306z" />
    <glyph glyph-name="q" unicode="q" horiz-adv-x="1215" 
d="M978 1014h96q-24 -46 -24 -134v-1381h-89v761q-37 -109 -148.5 -192t-227.5 -83q-127 0 -233.5 71t-167 191.5t-60.5 260.5t60.5 259.5t167 191t233.5 71.5q114 0 226 -85.5t150 -190.5v126q0 75 17 134zM961 508q0 180 -111 306t-265 126q-153 0 -265 -126t-112 -306
q0 -179 112 -306.5t265 -127.5t264.5 127t111.5 307z" />
    <glyph glyph-name="r" unicode="r" horiz-adv-x="648" 
d="M143 1014h96q19 -66 19 -134v-126q23 77 107 160t169 116l100 -71q-88 0 -175.5 -62t-144 -164.5t-56.5 -211.5v-521h-90v880q0 86 -25 134z" />
    <glyph glyph-name="s" unicode="s" horiz-adv-x="892" 
d="M709 835l-83 -29q-21 67 -71 102.5t-107 35.5q-66 0 -112.5 -42t-46.5 -114q0 -38 21 -69t55 -51t77.5 -41t88.5 -39t88.5 -45t77.5 -58t55 -80t21 -110q0 -139 -99 -225.5t-230 -86.5q-57 0 -109 18.5t-96 54.5t-75 96t-40 137l89 13q14 -114 79.5 -172t153.5 -58
q93 0 165 62.5t72 160.5q0 54 -27 95.5t-69.5 67.5t-94.5 49t-104 47t-94.5 52.5t-69.5 75t-27 106.5q0 112 74.5 178t176.5 66q84 0 157 -50.5t104 -146.5z" />
    <glyph glyph-name="t" unicode="t" horiz-adv-x="551" 
d="M258 0h-90v925h-89v89h89v240h90v-240h280l-30 -89h-250v-925z" />
    <glyph glyph-name="u" unicode="u" horiz-adv-x="1066" 
d="M168 1014h90v-627q0 -131 79 -222t193 -91q115 0 198.5 91.5t83.5 221.5v627h90v-627q0 -165 -107 -283.5t-261 -118.5q-153 0 -259.5 118.5t-106.5 283.5v627z" />
    <glyph glyph-name="v" unicode="v" horiz-adv-x="946" 
d="M36 1014h96l342 -811l340 811h100l-437 -1044z" />
    <glyph glyph-name="w" unicode="w" horiz-adv-x="1600" 
d="M36 1014h98l332 -793l340 811l341 -811l324 793h96l-420 -1031l-344 810l-340 -810z" />
    <glyph glyph-name="x" unicode="x" horiz-adv-x="906" 
d="M79 1014h98l273 -399l276 399h105l-327 -476l367 -538h-104l-312 459l-314 -459h-105l367 538z" />
    <glyph glyph-name="y" unicode="y" horiz-adv-x="946" 
d="M36 1014h92l349 -895l341 895h96l-583 -1535h-96l197 519z" />
    <glyph glyph-name="z" unicode="z" horiz-adv-x="888" 
d="M158 1014h695l-648 -924h645l-28 -90h-786l651 925h-559z" />
    <glyph glyph-name="braceleft" unicode="{" horiz-adv-x="570" 
d="M346 1224v-295q0 -113 -27.5 -180t-87.5 -121q56 -46 85.5 -112t29.5 -185v-297q0 -134 44.5 -209t122.5 -75v-62q-28 0 -54.5 5.5t-56.5 18.5t-54.5 39t-45.5 62.5t-32.5 93t-11.5 127.5v297q0 74 -15.5 122.5t-41 76t-75.5 61.5v74q50 34 75.5 61.5t41 76t15.5 122.5
v299q0 83 17 147t43 100t62 58.5t67.5 30t65.5 7.5v-61q-78 0 -122.5 -74.5t-44.5 -207.5z" />
    <glyph glyph-name="bar" unicode="|" horiz-adv-x="422" 
d="M258 -150h-90v1791h90v-1791z" />
    <glyph glyph-name="braceright" unicode="}" horiz-adv-x="574" 
d="M60 1506v59q34 0 66 -7.5t68.5 -30t63.5 -59t44.5 -100.5t17.5 -148v-298q0 -74 15 -122t40.5 -76t74.5 -62v-73q-49 -34 -74.5 -62t-40.5 -76t-15 -122v-299q0 -84 -17.5 -147.5t-44.5 -100t-63.5 -59t-68.5 -30t-66 -7.5v62q79 0 125 74.5t46 207.5v299q0 120 29.5 186
t85.5 111q-62 53 -91 119.5t-29 179.5v299q0 134 -44 208t-122 74z" />
    <glyph glyph-name="asciitilde" unicode="~" horiz-adv-x="1058" 
d="M878 598h60q0 -113 -49.5 -166.5t-129.5 -53.5q-51 0 -115 21t-114.5 46.5t-111.5 46.5t-106 21q-23 0 -43 -5t-41.5 -17t-34 -39t-12.5 -65h-57q0 116 53 168t135 52q57 0 122 -21t114 -46.5t107.5 -46.5t103.5 -21q119 0 119 126z" />
    <glyph glyph-name="uni00A0" unicode="&#xa0;" horiz-adv-x="718" 
 />
    <glyph glyph-name="exclamdown" unicode="&#xa1;" horiz-adv-x="570" 
d="M258 745h58l30 -1222h-120zM203 947q0 33 25 58t58 25q34 0 58.5 -25t24.5 -58q0 -34 -25 -60t-58 -26t-58 26t-25 60z" />
    <glyph glyph-name="cent" unicode="&#xa2;" horiz-adv-x="1105" 
d="M544 1254h90v-224q109 -12 202.5 -77.5t148.5 -166.5l-79 -45q-44 81 -114.5 133t-155.5 64v-859q84 10 155 62t115 134l79 -44q-56 -101 -149 -166.5t-202 -75.5v-228h-90v228q-117 11 -214 83.5t-151.5 187.5t-54.5 248q0 202 120.5 351.5t299.5 167.5v227zM544 81v859
q-139 -18 -235 -140t-96 -290q0 -167 96 -289t235 -140z" />
    <glyph glyph-name="sterling" unicode="&#xa3;" horiz-adv-x="1033" 
d="M724 701h-286q2 -30 2 -90q0 -159 -46.5 -289t-160.5 -232h732l-32 -90h-837l-24 83q84 48 141 107.5t87.5 128t43 137t12.5 151.5q0 58 -4 89h-269l31 90h228q-3 28 -21.5 183.5t-18.5 230.5q0 71 28 130.5t74.5 98.5t104.5 60.5t119 21.5q120 0 211 -79t112 -230
l-58 -11q-16 113 -91.5 173t-173.5 60q-96 0 -168.5 -60.5t-72.5 -161.5q0 -52 7 -117.5t19 -155t17 -139.5h322z" />
    <glyph glyph-name="currency" unicode="&#xa4;" horiz-adv-x="1301" 
d="M1155 1191l-159 -161q89 -113 89 -267t-94 -270l171 -173l-62 -62l-171 169q-122 -96 -273 -96q-155 0 -273 96l-178 -175l-62 64l177 175q-96 117 -96 270q0 155 96 275l-156 155l62 63l157 -154q122 94 268 94q153 0 274 -102l167 162zM314 763q0 -141 99.5 -240.5
t240.5 -99.5t240.5 99.5t99.5 240.5t-99.5 241t-240.5 100t-240.5 -100t-99.5 -241z" />
    <glyph glyph-name="yen" unicode="&#xa5;" horiz-adv-x="1228" 
d="M1012 495v-94h-352v-401h-89v401h-363v94h363v150h-358v96h297l-474 752h105l474 -752l475 752h104l-476 -752h303v-96h-361v-150h352z" />
    <glyph glyph-name="brokenbar" unicode="&#xa6;" horiz-adv-x="422" 
d="M258 716h-90v807h90v-807zM258 -508h-90v805h90v-805z" />
    <glyph glyph-name="section" unicode="&#xa7;" horiz-adv-x="897" 
d="M124 173h89q14 -113 78.5 -165.5t154.5 -52.5q95 0 166 61t71 161q0 57 -31 100t-80 70.5t-109 51.5t-119.5 51.5t-108.5 62t-80 91t-31 130.5q0 151 115 240q-115 79 -115 224q0 136 96.5 222t229.5 86q121 0 212.5 -76t114.5 -228h-94q-15 108 -78 161.5t-150 53.5
q-98 0 -169 -60t-71 -159q0 -51 24 -90.5t63.5 -64.5t90 -49.5t103.5 -43.5t103.5 -47t90 -60t63.5 -83.5t24 -116.5q0 -147 -117 -240q117 -81 117 -224q0 -137 -98.5 -225t-230.5 -88q-120 0 -212 77.5t-112 229.5zM687 643q0 39 -17 72.5t-41 55.5t-65 45t-74.5 36.5
t-85.5 34.5t-82 35q-109 -63 -109 -185q0 -49 20 -86.5t62.5 -66t79 -46t101.5 -43t97 -40.5q114 63 114 188z" />
    <glyph glyph-name="dieresis" unicode="&#xa8;" horiz-adv-x="767" 
d="M124 1292q0 34 24 59.5t57 25.5q34 0 59 -25.5t25 -59.5t-25 -58.5t-59 -24.5q-33 0 -57 24.5t-24 58.5zM481 1292q0 34 24.5 59.5t58.5 25.5t58.5 -25.5t24.5 -59.5t-24.5 -58.5t-58.5 -24.5t-58.5 24.5t-24.5 58.5z" />
    <glyph glyph-name="copyright" unicode="&#xa9;" horiz-adv-x="1758" 
d="M880 1506q154 0 294.5 -60t242 -162t161.5 -243t60 -296t-60 -295.5t-161.5 -242.5t-242 -162t-294.5 -60t-294 60t-241 162t-161 242.5t-60 295.5t60 296t161 243t241 162t294 60zM213 745q0 -136 52.5 -260t141.5 -214t213 -143.5t260 -53.5q137 0 261 53.5t213 143.5
t142 214t53 260q0 183 -89 337.5t-243.5 244.5t-336.5 90t-335.5 -90t-242.5 -244.5t-89 -337.5zM1128 562l79 -45q-52 -95 -138.5 -150t-190.5 -55q-162 0 -273.5 126.5t-111.5 304.5t111.5 305t273.5 127q104 0 190.5 -56t138.5 -150l-79 -44q-41 75 -106.5 117.5
t-143.5 42.5q-122 0 -209.5 -99t-87.5 -243t88 -243t209 -99q78 0 143.5 43t106.5 118z" />
    <glyph glyph-name="ordfeminine" unicode="&#xaa;" horiz-adv-x="872" 
d="M645 938v62q-94 32 -209 32q-104 0 -170.5 -39.5t-66.5 -131.5q0 -77 53 -120t133 -43q53 0 102 25.5t81.5 63t52.5 78t24 73.5zM213 1164l-63 36q42 74 111.5 118.5t150.5 44.5q134 0 225 -90.5t91 -240.5v-210q0 -89 24 -184l-81 -18q-18 74 -24 177
q-41 -76 -108.5 -126.5t-153.5 -50.5q-114 0 -187.5 66.5t-73.5 174.5q0 63 25 109.5t68.5 73t95.5 38.5t114 12q119 0 218 -37q-7 107 -74 170t-165 63q-58 0 -108.5 -33.5t-84.5 -92.5z" />
    <glyph glyph-name="guillemotleft" unicode="&#xab;" horiz-adv-x="874" 
d="M707 867h111l-256 -359l256 -358h-111l-257 358zM378 867h113l-258 -359l258 -358h-113l-254 358z" />
    <glyph glyph-name="logicalnot" unicode="&#xac;" horiz-adv-x="1393" 
d="M1273 912v-553h-89v463h-1060v90h1149z" />
    <glyph glyph-name="uni00AD" unicode="&#xad;" horiz-adv-x="1036" 
d="M916 553v-90h-792v90h792z" />
    <glyph glyph-name="registered" unicode="&#xae;" horiz-adv-x="1758" 
d="M1224 314h-105l-205 378h-188v-378h-90v865h302q97 0 166 -72.5t69 -173.5q0 -79 -46 -142.5t-117 -85.5zM213 745q0 -136 52.5 -260t141.5 -214t213 -143.5t260 -53.5q137 0 261 53.5t213 143.5t142 214t53 260q0 183 -89 337.5t-243.5 244.5t-336.5 90t-335.5 -90
t-242.5 -244.5t-89 -337.5zM880 1506q154 0 294.5 -60t242 -162t161.5 -243t60 -296t-60 -295.5t-161.5 -242.5t-242 -162t-294.5 -60t-294 60t-241 162t-161 242.5t-60 295.5t60 296t161 243t241 162t294 60zM726 781h214q59 0 101 44t42 108q0 66 -42 111.5t-103 45.5
h-212v-309z" />
    <glyph glyph-name="macron" unicode="&#xaf;" horiz-adv-x="856" 
d="M737 1298v-89h-613v89h613z" />
    <glyph glyph-name="degree" unicode="&#xb0;" horiz-adv-x="749" 
d="M376 1719q105 0 178.5 -74t73.5 -179q0 -106 -73.5 -180.5t-178.5 -74.5t-178.5 74.5t-73.5 180.5q0 105 73.5 179t178.5 74zM215 1466q0 -67 47 -114t114 -47t114.5 47t47.5 114t-47.5 114t-114.5 47t-114 -47t-47 -114z" />
    <glyph glyph-name="plusminus" unicode="&#xb1;" horiz-adv-x="1036" 
d="M916 90v-90h-792v90h792zM564 349h-90v352h-350v89h350v354h90v-354h352v-89h-352v-352z" />
    <glyph glyph-name="uni00B2" unicode="&#xb2;" horiz-adv-x="883" 
d="M741 925l-617 -3v45q0 69 30 129t78 104t106 84t116.5 76t106.5 72.5t78 82t30 95.5q0 98 -61 166.5t-145 68.5t-144.5 -68t-60.5 -167h-90q0 132 86.5 228t211.5 96t211 -94.5t86 -227.5q0 -61 -27 -114t-70.5 -93.5t-97 -77t-109.5 -71.5t-104 -70t-84 -79.5t-47 -92.5
h517v-89z" />
    <glyph glyph-name="uni00B3" unicode="&#xb3;" horiz-adv-x="870" 
d="M278 1683h-90q0 103 72 175.5t176 72.5q103 0 175 -72.5t72 -175.5q0 -116 -94 -188q72 -41 116.5 -113t44.5 -158q0 -130 -92 -221t-222 -91t-221 91t-91 221h89q0 -93 66 -160.5t159 -67.5q94 0 160.5 67.5t66.5 160.5q0 94 -66 160t-161 66v90q69 0 115.5 39.5
t46.5 103.5q0 66 -47.5 113t-114.5 47t-113.5 -47t-46.5 -113z" />
    <glyph glyph-name="acute" unicode="&#xb4;" horiz-adv-x="630" 
d="M430 1551h168l-286 -357h-109z" />
    <glyph glyph-name="micro" unicode="&#xb5;" horiz-adv-x="1066" 
d="M168 1014h90v-621q0 -131 79 -221.5t193 -90.5q116 0 199 91t83 221v621h90v-621q0 -166 -107 -284t-261 -118q-83 0 -155 36.5t-121 100.5v-433q0 -91 37 -163l-77 -42q-50 94 -50 203v1321z" />
    <glyph glyph-name="paragraph" unicode="&#xb6;" horiz-adv-x="1260" 
d="M857 -248h-90v696h-22q-120 0 -222.5 29t-174.5 79t-123.5 116.5t-76 141.5t-24.5 155q0 101 40 193.5t115 167t196 119t270 44.5h349v-1741h-88v1651h-149v-1651z" />
    <glyph glyph-name="periodcentered" unicode="&#xb7;" horiz-adv-x="498" 
d="M168 745q0 34 24.5 60t57.5 26t58 -26t25 -60q0 -33 -24.5 -58t-58.5 -25q-33 0 -57.5 25t-24.5 58z" />
    <glyph glyph-name="cedilla" unicode="&#xb8;" horiz-adv-x="624" 
d="M316 0h85l-55 -96q137 -23 137 -148q0 -70 -53 -113.5t-133 -43.5q-77 0 -154 49l47 74q51 -34 107 -34q45 0 70.5 20t25.5 48q0 29 -30.5 46.5t-76.5 24.5l-64 9z" />
    <glyph glyph-name="uni00B9" unicode="&#xb9;" horiz-adv-x="782" 
d="M419 925v833l-122 -81l-49 76l256 174v-1002h-85z" />
    <glyph glyph-name="ordmasculine" unicode="&#xba;" horiz-adv-x="923" 
d="M463 1298q141 0 240.5 -99t99.5 -240t-99.5 -241t-240.5 -100t-240 100t-99 241t99 240t240 99zM213 959q0 -106 73 -180t177 -74q103 0 177 74.5t74 179.5t-74 178.5t-177 73.5q-104 0 -177 -73.5t-73 -178.5z" />
    <glyph glyph-name="guillemotright" unicode="&#xbb;" horiz-adv-x="874" 
d="M124 867h109l258 -359l-258 -358h-109l254 358zM450 867h112l256 -359l-256 -358h-112l257 358z" />
    <glyph glyph-name="onequarter" unicode="&#xbc;" horiz-adv-x="1848" 
d="M1424 1493h109l-1059 -1493h-109zM1471 252v509l-386 -509h386zM305 504v833l-117 -81l-51 76l256 174v-1002h-88zM1471 161h-567l654 862v-771h143l-29 -91h-112v-161h-89v161z" />
    <glyph glyph-name="onehalf" unicode="&#xbd;" horiz-adv-x="1848" 
d="M1690 90v-90h-618v43q0 69 30 129t78.5 104t107 83.5t116.5 75.5t106.5 72t78.5 81t30 95q0 100 -61.5 168.5t-145.5 68.5t-144.5 -68.5t-60.5 -168.5h-90q0 133 86.5 230t210.5 97q125 0 212 -95.5t87 -227.5q0 -61 -27 -114.5t-71 -93.5t-97.5 -77t-109.5 -71.5
t-104.5 -69.5t-84 -79t-46.5 -92h517zM1332 1493h110l-1059 -1493h-112zM305 504v833l-117 -81l-51 76l256 174v-1002h-88z" />
    <glyph glyph-name="threequarters" unicode="&#xbe;" horiz-adv-x="1848" 
d="M105 799h90q0 -95 65.5 -160.5t160.5 -65.5q94 0 160 66t66 160q0 95 -66 161.5t-160 66.5v90q68 0 114 39.5t46 103.5t-47 110.5t-113 46.5q-67 0 -114 -46.5t-47 -110.5h-89q0 103 72 174.5t176 71.5q102 0 174 -71.5t72 -174.5q0 -118 -94 -188q72 -41 116.5 -114
t44.5 -159q0 -130 -92 -222t-221 -92q-131 0 -222.5 92t-91.5 222zM1542 1493h112l-1061 -1493h-110zM1531 252v509l-384 -509h384zM1531 164h-566l654 863v-775h143l-32 -88h-109v-164h-90v164z" />
    <glyph glyph-name="questiondown" unicode="&#xbf;" horiz-adv-x="1036" 
d="M634 947q0 -34 -26 -60t-59 -26t-58 26t-25 60q0 33 24.5 58t58.5 25q33 0 59 -25t26 -58zM502 707h89v-150q0 -71 -21 -136t-54 -115t-73.5 -96t-81 -86.5t-73.5 -78t-54 -79t-21 -82.5q0 -126 82 -206.5t205 -80.5q69 0 131 25.5t104 67t66.5 92.5t24.5 102h90
q0 -98 -55 -184.5t-151.5 -139.5t-209.5 -53q-162 0 -269 107t-107 270q0 52 21 102t54 91.5t73.5 83t81 85t73.5 89t54 103t21 119.5v150z" />
    <glyph glyph-name="Agrave" unicode="&#xc0;" horiz-adv-x="1322" 
d="M365 1878h169l225 -266h-94zM365 553h602l-302 725zM1003 463h-681l-190 -463h-96l626 1511l628 -1511h-96z" />
    <glyph glyph-name="Aacute" unicode="&#xc1;" horiz-adv-x="1322" 
d="M799 1878h170l-300 -266h-94zM365 553h602l-302 725zM1003 463h-681l-190 -463h-96l626 1511l628 -1511h-96z" />
    <glyph glyph-name="Acircumflex" unicode="&#xc2;" horiz-adv-x="1322" 
d="M634 1878h64l242 -266h-122l-153 163l-152 -163h-122zM365 553h602l-302 725zM1003 463h-681l-190 -463h-96l626 1511l628 -1511h-96z" />
    <glyph glyph-name="Atilde" unicode="&#xc3;" horiz-adv-x="1322" 
d="M459 1612h-56q1 34 5.5 60t17 56.5t39 47.5t65.5 17q46 0 97 -27t93.5 -54t67.5 -27q6 0 14.5 4t20 13t19.5 29t8 48h62q0 -183 -126 -183q-41 0 -90 27t-94 54t-74 27q-25 0 -45.5 -20t-23.5 -72zM365 553h602l-302 725zM1003 463h-681l-190 -463h-96l626 1511
l628 -1511h-96z" />
    <glyph glyph-name="Adieresis" unicode="&#xc4;" horiz-adv-x="1322" 
d="M403 1694q0 34 24.5 59.5t57.5 25.5q34 0 60 -25.5t26 -59.5q0 -33 -26 -57.5t-60 -24.5t-58 24t-24 58zM761 1694q0 34 24.5 59.5t58.5 25.5t59.5 -25.5t25.5 -59.5q0 -33 -25.5 -57.5t-59.5 -24.5t-58.5 24t-24.5 58zM365 553h602l-302 725zM1003 463h-681l-190 -463
h-96l626 1511l628 -1511h-96z" />
    <glyph glyph-name="Aring" unicode="&#xc5;" horiz-adv-x="1322" 
d="M660 2025q90 0 152.5 -62t62.5 -152q0 -89 -63 -152t-152 -63q-90 0 -152 62.5t-62 152.5t62 152t152 62zM534 1811q0 -51 37 -88.5t89 -37.5q51 0 88.5 37.5t37.5 88.5q0 52 -37.5 89t-88.5 37q-52 0 -89 -37t-37 -89zM365 553h602l-302 725zM1003 463h-681l-190 -463
h-96l626 1511l628 -1511h-96z" />
    <glyph glyph-name="AE" unicode="&#xc6;" horiz-adv-x="1542" 
d="M1424 912v-90h-510l133 -732h459v-90h-532l-88 463h-564l-190 -463h-96l618 1493h830v-90h-678l89 -491h529zM361 553h510l-155 850h-2z" />
    <glyph glyph-name="Ccedilla" unicode="&#xc7;" horiz-adv-x="1613" 
d="M1417 346l76 -51q-101 -135 -250 -216.5t-321 -89.5l-47 -81q137 -24 137 -150q0 -68 -53 -111t-133 -43q-82 0 -155 47l47 74q52 -32 108 -32q44 0 70 18.5t26 46.5q0 55 -108 71l-64 10l89 152q-148 7 -280.5 70t-228 163.5t-151 238t-55.5 287.5q0 155 60 296t161 243
t241 162t294 60q184 0 344 -83.5t265 -227.5l-72 -53q-93 125 -233.5 197.5t-303.5 72.5q-182 0 -335.5 -90t-242.5 -244.5t-89 -337.5q0 -136 52.5 -260t141.5 -214t213 -143.5t260 -53.5q163 0 303.5 73t233.5 199z" />
    <glyph glyph-name="Egrave" unicode="&#xc8;" horiz-adv-x="1094" 
d="M302 1878h170l224 -266h-94zM974 912v-90h-716v-732h774v-90h-864v1493h868v-90h-778v-491h716z" />
    <glyph glyph-name="Eacute" unicode="&#xc9;" horiz-adv-x="1094" 
d="M822 1878l-303 -266h-92l224 266h171zM974 912v-90h-716v-732h774v-90h-864v1493h868v-90h-778v-491h716z" />
    <glyph glyph-name="Ecircumflex" unicode="&#xca;" horiz-adv-x="1094" 
d="M716 1612l-154 163l-152 -163h-124l242 266h70l241 -266h-123zM974 912v-90h-716v-732h774v-90h-864v1493h868v-90h-778v-491h716z" />
    <glyph glyph-name="Edieresis" unicode="&#xcb;" horiz-adv-x="1094" 
d="M297 1694q0 34 26 59.5t60 25.5q33 0 58 -25.5t25 -59.5q0 -33 -25 -57.5t-58 -24.5q-34 0 -60 24.5t-26 57.5zM656 1694q0 34 25.5 59.5t59.5 25.5t58.5 -25.5t24.5 -59.5t-24.5 -58t-58.5 -24t-59.5 24.5t-25.5 57.5zM974 912v-90h-716v-732h774v-90h-864v1493h868v-90
h-778v-491h716z" />
    <glyph glyph-name="Igrave" unicode="&#xcc;" horiz-adv-x="422" 
d="M-90 1878h171l224 -266h-92zM258 0h-90v1493h90v-1493z" />
    <glyph glyph-name="Iacute" unicode="&#xcd;" horiz-adv-x="422" 
d="M513 1878l-300 -266h-94l223 266h171zM258 0h-90v1493h90v-1493z" />
    <glyph glyph-name="Icircumflex" unicode="&#xce;" horiz-adv-x="422" 
d="M365 1612l-157 163l-152 -163h-120l241 266h67l241 -266h-120zM258 0h-90v1493h90v-1493z" />
    <glyph glyph-name="Idieresis" unicode="&#xcf;" horiz-adv-x="422" 
d="M-54 1694q0 34 25 59.5t59 25.5q33 0 58.5 -25.5t25.5 -59.5q0 -33 -25.5 -57.5t-58.5 -24.5q-34 0 -59 24t-25 58zM305 1694q0 34 24.5 59.5t57.5 25.5q34 0 59.5 -25.5t25.5 -59.5q0 -33 -25.5 -57.5t-59.5 -24.5t-58 24t-24 58zM258 0h-90v1493h90v-1493z" />
    <glyph glyph-name="Eth" unicode="&#xd0;" horiz-adv-x="1346" 
d="M258 90h210q183 0 336.5 86t243 237t89.5 332q0 183 -89.5 334.5t-243 237.5t-336.5 86h-210v-613h440v-89h-440v-611zM168 790v703h300q154 0 294 -58t242 -157.5t162 -238.5t60 -294q0 -206 -102 -377.5t-276 -269.5t-380 -98h-300v701h-159v89h159z" />
    <glyph glyph-name="Ntilde" unicode="&#xd1;" horiz-adv-x="1678" 
d="M168 0v1511l1256 -1309v1291h89v-1510l-1255 1307v-1290h-90zM638 1612h-57q2 35 6.5 60.5t17 56t39 47.5t65.5 17q47 0 97.5 -27t92.5 -54t68 -27q6 0 15 4t20.5 13t19.5 29t8 48h60q0 -183 -125 -183q-41 0 -90 27t-94 54t-74 27q-24 0 -45 -20t-24 -72z" />
    <glyph glyph-name="Ograve" unicode="&#xd2;" horiz-adv-x="1758" 
d="M880 1506q154 0 294.5 -60t242 -162t161.5 -243t60 -296t-60 -295.5t-161.5 -242.5t-242 -162t-294.5 -60t-294 60t-241 162t-161 242.5t-60 295.5t60 296t161 243t241 162t294 60zM213 745q0 -136 52.5 -260t141.5 -214t213 -143.5t260 -53.5q137 0 261 53.5t213 143.5
t142 214t53 260q0 183 -89 337.5t-243.5 244.5t-336.5 90t-335.5 -90t-242.5 -244.5t-89 -337.5zM495 1878h170l224 -266h-92z" />
    <glyph glyph-name="Oacute" unicode="&#xd3;" horiz-adv-x="1758" 
d="M1243 1878l-303 -266h-92l224 266h171zM880 1506q154 0 294.5 -60t242 -162t161.5 -243t60 -296t-60 -295.5t-161.5 -242.5t-242 -162t-294.5 -60t-294 60t-241 162t-161 242.5t-60 295.5t60 296t161 243t241 162t294 60zM213 745q0 -136 52.5 -260t141.5 -214
t213 -143.5t260 -53.5q137 0 261 53.5t213 143.5t142 214t53 260q0 183 -89 337.5t-243.5 244.5t-336.5 90t-335.5 -90t-242.5 -244.5t-89 -337.5z" />
    <glyph glyph-name="Ocircumflex" unicode="&#xd4;" horiz-adv-x="1758" 
d="M1036 1612l-156 163l-152 -163h-121l241 266h68l241 -266h-121zM880 1506q154 0 294.5 -60t242 -162t161.5 -243t60 -296t-60 -295.5t-161.5 -242.5t-242 -162t-294.5 -60t-294 60t-241 162t-161 242.5t-60 295.5t60 296t161 243t241 162t294 60zM213 745
q0 -136 52.5 -260t141.5 -214t213 -143.5t260 -53.5q137 0 261 53.5t213 143.5t142 214t53 260q0 183 -89 337.5t-243.5 244.5t-336.5 90t-335.5 -90t-242.5 -244.5t-89 -337.5z" />
    <glyph glyph-name="Otilde" unicode="&#xd5;" horiz-adv-x="1758" 
d="M683 1612h-57q5 181 128 181q46 0 96.5 -27t93 -54t68.5 -27q6 0 14.5 4t20 13t19.5 29t8 48h61q0 -183 -125 -183q-41 0 -90 27t-94 54t-74 27q-25 0 -45.5 -20t-23.5 -72zM880 1506q154 0 294.5 -60t242 -162t161.5 -243t60 -296t-60 -295.5t-161.5 -242.5t-242 -162
t-294.5 -60t-294 60t-241 162t-161 242.5t-60 295.5t60 296t161 243t241 162t294 60zM213 745q0 -136 52.5 -260t141.5 -214t213 -143.5t260 -53.5q137 0 261 53.5t213 143.5t142 214t53 260q0 183 -89 337.5t-243.5 244.5t-336.5 90t-335.5 -90t-242.5 -244.5t-89 -337.5z
" />
    <glyph glyph-name="Odieresis" unicode="&#xd6;" horiz-adv-x="1758" 
d="M618 1694q0 34 24.5 59.5t58.5 25.5q33 0 59 -25.5t26 -59.5q0 -33 -26 -57.5t-59 -24.5q-34 0 -58.5 24t-24.5 58zM976 1694q0 34 24.5 59.5t58.5 25.5t59.5 -25.5t25.5 -59.5q0 -33 -25.5 -57.5t-59.5 -24.5t-58.5 24t-24.5 58zM880 1506q154 0 294.5 -60t242 -162
t161.5 -243t60 -296t-60 -295.5t-161.5 -242.5t-242 -162t-294.5 -60t-294 60t-241 162t-161 242.5t-60 295.5t60 296t161 243t241 162t294 60zM213 745q0 -136 52.5 -260t141.5 -214t213 -143.5t260 -53.5q137 0 261 53.5t213 143.5t142 214t53 260q0 183 -89 337.5
t-243.5 244.5t-336.5 90t-335.5 -90t-242.5 -244.5t-89 -337.5z" />
    <glyph glyph-name="multiply" unicode="&#xd7;" horiz-adv-x="1066" 
d="M996 349h-127l-331 332l-325 -332h-126l387 394l-402 401h127l339 -338l331 338h125l-394 -401z" />
    <glyph glyph-name="Oslash" unicode="&#xd8;" horiz-adv-x="1756" 
d="M378 -114l-73 50l127 196q-143 104 -225.5 265.5t-82.5 347.5q0 155 60 296t161 243t241 162t294 60q212 0 389 -107l134 206l75 -47l-137 -208q137 -108 216 -266t79 -339q0 -155 -60 -295.5t-161.5 -242.5t-242 -162t-294.5 -60q-199 0 -370 98zM1292 1273l-735 -1115
q154 -84 323 -84q137 0 261 53.5t213 143.5t142 214t53 260q0 159 -69 297.5t-188 230.5zM483 205l735 1120q-149 92 -338 92q-182 0 -335.5 -90t-242.5 -244.5t-89 -337.5q0 -161 72.5 -303t197.5 -237z" />
    <glyph glyph-name="Ugrave" unicode="&#xd9;" horiz-adv-x="1393" 
d="M352 1878h169l224 -266h-91zM168 1493h90v-927q0 -135 61 -249t162.5 -178.5t219.5 -64.5t218.5 64.5t160 178t59.5 249.5v927h90v-927q0 -157 -70.5 -290.5t-193 -212t-267.5 -78.5t-267 78.5t-192.5 212t-70.5 290.5v927z" />
    <glyph glyph-name="Uacute" unicode="&#xda;" horiz-adv-x="1393" 
d="M875 1878h170l-302 -266h-92zM168 1493h90v-927q0 -135 61 -249t162.5 -178.5t219.5 -64.5t218.5 64.5t160 178t59.5 249.5v927h90v-927q0 -157 -70.5 -290.5t-193 -212t-267.5 -78.5t-267 78.5t-192.5 212t-70.5 290.5v927z" />
    <glyph glyph-name="Ucircumflex" unicode="&#xdb;" horiz-adv-x="1393" 
d="M974 1612h-126l-152 163l-152 -163h-123l241 266h70zM168 1493h90v-927q0 -135 61 -249t162.5 -178.5t219.5 -64.5t218.5 64.5t160 178t59.5 249.5v927h90v-927q0 -157 -70.5 -290.5t-193 -212t-267.5 -78.5t-267 78.5t-192.5 212t-70.5 290.5v927z" />
    <glyph glyph-name="Udieresis" unicode="&#xdc;" horiz-adv-x="1393" 
d="M436 1694q0 34 24.5 59.5t58.5 25.5t58.5 -25.5t24.5 -59.5t-24.5 -58t-58.5 -24t-58.5 24t-24.5 58zM795 1694q0 34 24.5 59.5t58.5 25.5q33 0 58 -25.5t25 -59.5q0 -33 -25 -57.5t-58 -24.5q-34 0 -58.5 24t-24.5 58zM168 1493h90v-927q0 -135 61 -249t162.5 -178.5
t219.5 -64.5t218.5 64.5t160 178t59.5 249.5v927h90v-927q0 -157 -70.5 -290.5t-193 -212t-267.5 -78.5t-267 78.5t-192.5 212t-70.5 290.5v927z" />
    <glyph glyph-name="Yacute" unicode="&#xdd;" horiz-adv-x="1228" 
d="M795 1878h170l-303 -266h-91zM36 1493h105l474 -752l475 752h104l-534 -848v-645h-89v645z" />
    <glyph glyph-name="Thorn" unicode="&#xde;" horiz-adv-x="1134" 
d="M258 1066v-639q88 -17 192 -17q215 0 343.5 88t128.5 247t-128.5 248.5t-343.5 89.5q-88 0 -192 -17zM168 0v1493h90v-340q105 18 192 18q259 0 411.5 -117t152.5 -311t-152.5 -310.5t-411.5 -116.5q-93 0 -192 17v-333h-90z" />
    <glyph glyph-name="germandbls" unicode="&#xdf;" horiz-adv-x="1132" 
d="M258 1166v-1166h-90v1164q0 124 32.5 222t87.5 158t122.5 91t142.5 31q146 0 254.5 -106t108.5 -280q0 -53 -18 -101t-45.5 -82t-59 -67.5t-59 -59t-45.5 -54t-18 -55.5q0 -35 25.5 -71.5t63 -66.5t82 -69t82 -78t63 -94.5t25.5 -116.5q0 -89 -31 -163t-84 -121
t-120.5 -72.5t-142.5 -25.5q-168 0 -294 109l61 40q91 -78 210 -78q126 0 217.5 86t91.5 229q0 51 -25.5 98t-63 80t-82 71t-82 71t-63 80t-25.5 98q0 38 18 75t45.5 65.5t59 61t59 62t45.5 69.5t18 83q0 135 -83 215t-195 80q-56 0 -106 -23.5t-91.5 -71t-66 -129.5
t-24.5 -188z" />
    <glyph glyph-name="agrave" unicode="&#xe0;" horiz-adv-x="1060" 
d="M920 0h-96q-18 57 -18 134v79q-72 -100 -172.5 -165t-212.5 -65q-81 0 -144.5 25.5t-100.5 67.5t-56 89.5t-19 96.5q0 51 15.5 94t40 73.5t65 55t78 40t93.5 27t97 17t102 8.5t96.5 3.5t90.5 0.5h27q-5 165 -97.5 263t-213.5 98q-71 0 -138.5 -37t-117.5 -108l-71 47
q61 94 147 141t180 47q76 0 146.5 -30.5t126.5 -86t90.5 -142.5t36.5 -192v-447q0 -87 25 -134zM421 72q115 0 223 77t162 176v192q-47 -1 -78.5 -2t-86 -4.5t-92.5 -8t-88.5 -14.5t-85.5 -22.5t-72.5 -32t-60.5 -43t-37.5 -56.5t-14.5 -72q0 -72 60 -131t171 -59zM199 1457
h170l224 -266h-91z" />
    <glyph glyph-name="aacute" unicode="&#xe1;" horiz-adv-x="1060" 
d="M628 1457h171l-299 -266h-94zM920 0h-96q-18 57 -18 134v79q-72 -100 -172.5 -165t-212.5 -65q-81 0 -144.5 25.5t-100.5 67.5t-56 89.5t-19 96.5q0 51 15.5 94t40 73.5t65 55t78 40t93.5 27t97 17t102 8.5t96.5 3.5t90.5 0.5h27q-5 165 -97.5 263t-213.5 98
q-71 0 -138.5 -37t-117.5 -108l-71 47q61 94 147 141t180 47q76 0 146.5 -30.5t126.5 -86t90.5 -142.5t36.5 -192v-447q0 -87 25 -134zM421 72q115 0 223 77t162 176v192q-47 -1 -78.5 -2t-86 -4.5t-92.5 -8t-88.5 -14.5t-85.5 -22.5t-72.5 -32t-60.5 -43t-37.5 -56.5
t-14.5 -72q0 -72 60 -131t171 -59z" />
    <glyph glyph-name="acircumflex" unicode="&#xe2;" horiz-adv-x="1060" 
d="M493 1457h64l242 -266h-120l-153 163l-152 -163h-124zM920 0h-96q-18 57 -18 134v79q-72 -100 -172.5 -165t-212.5 -65q-81 0 -144.5 25.5t-100.5 67.5t-56 89.5t-19 96.5q0 51 15.5 94t40 73.5t65 55t78 40t93.5 27t97 17t102 8.5t96.5 3.5t90.5 0.5h27
q-5 165 -97.5 263t-213.5 98q-71 0 -138.5 -37t-117.5 -108l-71 47q61 94 147 141t180 47q76 0 146.5 -30.5t126.5 -86t90.5 -142.5t36.5 -192v-447q0 -87 25 -134zM421 72q115 0 223 77t162 176v192q-47 -1 -78.5 -2t-86 -4.5t-92.5 -8t-88.5 -14.5t-85.5 -22.5t-72.5 -32
t-60.5 -43t-37.5 -56.5t-14.5 -72q0 -72 60 -131t171 -59z" />
    <glyph glyph-name="atilde" unicode="&#xe3;" horiz-adv-x="1060" 
d="M393 1372q47 0 96.5 -26t92 -51.5t72.5 -25.5q9 0 18 3t20 11t17.5 26t6.5 43h57q0 -54 -10 -83q-22 -94 -109 -94q-43 0 -92 28.5t-93.5 56.5t-75.5 28q-24 0 -44.5 -21.5t-23.5 -72.5h-58q0 51 8 84q26 94 118 94zM920 0h-96q-18 57 -18 134v79q-72 -100 -172.5 -165
t-212.5 -65q-81 0 -144.5 25.5t-100.5 67.5t-56 89.5t-19 96.5q0 51 15.5 94t40 73.5t65 55t78 40t93.5 27t97 17t102 8.5t96.5 3.5t90.5 0.5h27q-5 165 -97.5 263t-213.5 98q-71 0 -138.5 -37t-117.5 -108l-71 47q61 94 147 141t180 47q76 0 146.5 -30.5t126.5 -86
t90.5 -142.5t36.5 -192v-447q0 -87 25 -134zM421 72q115 0 223 77t162 176v192q-47 -1 -78.5 -2t-86 -4.5t-92.5 -8t-88.5 -14.5t-85.5 -22.5t-72.5 -32t-60.5 -43t-37.5 -56.5t-14.5 -72q0 -72 60 -131t171 -59z" />
    <glyph glyph-name="adieresis" unicode="&#xe4;" horiz-adv-x="1060" 
d="M267 1278q0 34 24.5 58.5t57.5 24.5t58 -24.5t25 -58.5t-25 -59t-58 -25t-57.5 25t-24.5 59zM624 1278q0 34 24.5 58.5t58.5 24.5t58.5 -24.5t24.5 -58.5t-24.5 -59t-58.5 -25t-58.5 25t-24.5 59zM920 0h-96q-18 57 -18 134v79q-72 -100 -172.5 -165t-212.5 -65
q-81 0 -144.5 25.5t-100.5 67.5t-56 89.5t-19 96.5q0 51 15.5 94t40 73.5t65 55t78 40t93.5 27t97 17t102 8.5t96.5 3.5t90.5 0.5h27q-5 165 -97.5 263t-213.5 98q-71 0 -138.5 -37t-117.5 -108l-71 47q61 94 147 141t180 47q76 0 146.5 -30.5t126.5 -86t90.5 -142.5
t36.5 -192v-447q0 -87 25 -134zM421 72q115 0 223 77t162 176v192q-47 -1 -78.5 -2t-86 -4.5t-92.5 -8t-88.5 -14.5t-85.5 -22.5t-72.5 -32t-60.5 -43t-37.5 -56.5t-14.5 -72q0 -72 60 -131t171 -59z" />
    <glyph glyph-name="aring" unicode="&#xe5;" horiz-adv-x="1060" 
d="M526 1610q89 0 152 -63t63 -152q0 -91 -62.5 -153.5t-152.5 -62.5t-152 62.5t-62 153.5q0 89 62 152t152 63zM401 1395q0 -52 36.5 -89t88.5 -37q51 0 88 37t37 89q0 50 -37.5 87.5t-87.5 37.5q-51 0 -88 -37.5t-37 -87.5zM920 0h-96q-18 57 -18 134v79
q-72 -100 -172.5 -165t-212.5 -65q-81 0 -144.5 25.5t-100.5 67.5t-56 89.5t-19 96.5q0 51 15.5 94t40 73.5t65 55t78 40t93.5 27t97 17t102 8.5t96.5 3.5t90.5 0.5h27q-5 165 -97.5 263t-213.5 98q-71 0 -138.5 -37t-117.5 -108l-71 47q61 94 147 141t180 47
q76 0 146.5 -30.5t126.5 -86t90.5 -142.5t36.5 -192v-447q0 -87 25 -134zM421 72q115 0 223 77t162 176v192q-47 -1 -78.5 -2t-86 -4.5t-92.5 -8t-88.5 -14.5t-85.5 -22.5t-72.5 -32t-60.5 -43t-37.5 -56.5t-14.5 -72q0 -72 60 -131t171 -59z" />
    <glyph glyph-name="ae" unicode="&#xe6;" horiz-adv-x="1859" 
d="M1739 508h-846q0 -179 111 -304t265 -125q97 0 180 52.5t136 146.5l79 -45q-62 -112 -167.5 -180t-227.5 -68q-131 0 -239.5 74t-170.5 199q-78 -121 -192 -198t-246 -77q-81 0 -144.5 25.5t-100.5 67.5t-56 89.5t-19 96.5q0 68 27.5 121.5t67 87.5t106 58.5t121 36.5
t136 18.5t128.5 7.5t119 1q-5 164 -96.5 256.5t-214.5 92.5q-71 0 -138.5 -37t-117.5 -108l-71 47q61 94 147 141t180 47q119 0 220 -71.5t146 -201.5q62 123 171 197t239 74q184 0 317.5 -139.5t148.5 -337.5zM421 72q113 0 227 78.5t178 191.5q-20 85 -20 166
q-238 -4 -350 -26q-266 -51 -266 -220q0 -72 60 -131t171 -59zM904 593h737q-27 151 -131.5 249t-238.5 98q-133 0 -236.5 -98t-130.5 -249z" />
    <glyph glyph-name="ccedilla" unicode="&#xe7;" horiz-adv-x="1004" 
d="M850 275l83 -40q-57 -102 -149 -167t-205 -77l-49 -83q139 -24 139 -150q0 -68 -53 -111t-133 -43q-86 0 -154 47l47 74q52 -32 107 -32q44 0 70 18.5t26 46.5q0 55 -107 71l-66 10l89 152q-181 18 -302 167.5t-121 351.5q0 141 61 261t167.5 190.5t233.5 70.5
q123 0 228 -67.5t167 -178.5l-79 -45q-53 92 -136 145.5t-180 53.5q-154 0 -265 -126t-111 -306t111.5 -307t264.5 -127q97 0 180.5 54t135.5 147z" />
    <glyph glyph-name="egrave" unicode="&#xe8;" horiz-adv-x="1177" 
d="M224 1459h169l225 -265h-92zM222 593h737q-28 151 -132 249t-238 98q-133 0 -236.5 -98t-130.5 -249zM1057 504h-849q0 -179 111.5 -302t265.5 -123q98 0 181.5 53t135.5 146l76 -45q-62 -113 -166.5 -180.5t-226.5 -67.5q-127 0 -233.5 71t-167 191.5t-60.5 260.5
q0 139 61.5 259t169 191.5t234.5 71.5q120 0 223.5 -64.5t167.5 -173.5t75 -239z" />
    <glyph glyph-name="eacute" unicode="&#xe9;" horiz-adv-x="1177" 
d="M752 1459h170l-302 -265h-92zM222 593h737q-28 151 -132 249t-238 98q-133 0 -236.5 -98t-130.5 -249zM1057 504h-849q0 -179 111.5 -302t265.5 -123q98 0 181.5 53t135.5 146l76 -45q-62 -113 -166.5 -180.5t-226.5 -67.5q-127 0 -233.5 71t-167 191.5t-60.5 260.5
q0 139 61.5 259t169 191.5t234.5 71.5q120 0 223.5 -64.5t167.5 -173.5t75 -239z" />
    <glyph glyph-name="ecircumflex" unicode="&#xea;" horiz-adv-x="1177" 
d="M553 1459h65l241 -265h-122l-152 165l-153 -165h-120zM222 593h737q-28 151 -132 249t-238 98q-133 0 -236.5 -98t-130.5 -249zM1057 504h-849q0 -179 111.5 -302t265.5 -123q98 0 181.5 53t135.5 146l76 -45q-62 -113 -166.5 -180.5t-226.5 -67.5q-127 0 -233.5 71
t-167 191.5t-60.5 260.5q0 139 61.5 259t169 191.5t234.5 71.5q120 0 223.5 -64.5t167.5 -173.5t75 -239z" />
    <glyph glyph-name="edieresis" unicode="&#xeb;" horiz-adv-x="1177" 
d="M312 1278q0 34 24 58.5t57 24.5q34 0 59 -24.5t25 -58.5t-25 -59t-59 -25q-33 0 -57 25t-24 59zM669 1278q0 34 24.5 58.5t58.5 24.5t58.5 -24.5t24.5 -58.5t-24.5 -59t-58.5 -25t-58.5 25t-24.5 59zM222 593h737q-28 151 -132 249t-238 98q-133 0 -236.5 -98
t-130.5 -249zM1057 504h-849q0 -179 111.5 -302t265.5 -123q98 0 181.5 53t135.5 146l76 -45q-62 -113 -166.5 -180.5t-226.5 -67.5q-127 0 -233.5 71t-167 191.5t-60.5 260.5q0 139 61.5 259t169 191.5t234.5 71.5q120 0 223.5 -64.5t167.5 -173.5t75 -239z" />
    <glyph glyph-name="igrave" unicode="&#xec;" horiz-adv-x="422" 
d="M-98 1459h170l223 -265h-92zM258 0h-90v1014h90v-1014z" />
    <glyph glyph-name="iacute" unicode="&#xed;" horiz-adv-x="422" 
d="M329 1459h166l-300 -265h-94zM258 0h-90v1014h90v-1014z" />
    <glyph glyph-name="icircumflex" unicode="&#xee;" horiz-adv-x="422" 
d="M258 0h-90v1014h90v-1014zM179 1459h65l241 -265h-120l-152 165l-153 -165h-122z" />
    <glyph glyph-name="idieresis" unicode="&#xef;" horiz-adv-x="422" 
d="M-54 1278q0 34 25 58.5t59 24.5q33 0 58.5 -25t25.5 -58q0 -34 -25.5 -59t-58.5 -25q-34 0 -59 25t-25 59zM305 1278q0 34 24 58.5t58 24.5t59.5 -24.5t25.5 -58.5t-25.5 -59t-59.5 -25t-58 25t-24 59zM258 0h-90v1014h90v-1014z" />
    <glyph glyph-name="eth" unicode="&#xf0;" horiz-adv-x="1282" 
d="M714 1354l2 -2q115 -97 201.5 -207.5t131.5 -200t72 -183t34 -149t7 -104.5q0 -107 -41 -204t-111 -166.5t-166 -111t-201 -41.5q-215 0 -367 153t-152 370q0 142 69.5 262.5t189 190t260.5 69.5q178 0 316 -108q-119 219 -323 383l-316 -188l-45 77l282 169
q-145 103 -309 157l27 85q187 -59 363 -191l317 188l45 -77zM638 938q-178 0 -305.5 -127.5t-127.5 -306.5q0 -116 58.5 -216t158 -158t216.5 -58q180 0 307 127t127 305q0 95 -36.5 177.5t-97 138t-138.5 87t-162 31.5z" />
    <glyph glyph-name="ntilde" unicode="&#xf1;" horiz-adv-x="1071" 
d="M410 1372q47 0 95.5 -26t90.5 -51.5t73 -25.5q21 0 42 22.5t21 69.5l56 -9q0 -53 -9 -83q-25 -94 -110 -94q-43 0 -92.5 28.5t-93.5 56.5t-73 28q-25 0 -47 -21.5t-23 -72.5h-60q0 51 9 84q30 94 121 94zM143 1014h96q19 -66 19 -134v-152q55 125 152.5 213.5t189.5 88.5
q102 0 172.5 -57t102 -146t31.5 -201v-626h-88v626q0 55 -10.5 106t-33.5 100t-68.5 78.5t-107.5 29.5q-59 0 -122.5 -46t-110 -112.5t-77 -141.5t-30.5 -132v-508h-90v880q0 86 -25 134z" />
    <glyph glyph-name="ograve" unicode="&#xf2;" horiz-adv-x="1282" 
d="M356 1459h170l224 -265h-94zM643 1030q105 0 201 -41t166 -111t111 -167t41 -203q0 -107 -41 -204t-111 -166.5t-166 -111t-201 -41.5q-215 0 -367 153t-152 370q0 142 69.5 262.5t189 190t260.5 69.5zM213 508q0 -179 126.5 -306.5t305.5 -127.5t305.5 127.5
t126.5 306.5q0 178 -126.5 305t-305.5 127t-305.5 -127t-126.5 -305z" />
    <glyph glyph-name="oacute" unicode="&#xf3;" horiz-adv-x="1282" 
d="M752 1459h170l-302 -265h-92zM643 1030q105 0 201 -41t166 -111t111 -167t41 -203q0 -107 -41 -204t-111 -166.5t-166 -111t-201 -41.5q-215 0 -367 153t-152 370q0 142 69.5 262.5t189 190t260.5 69.5zM213 508q0 -179 126.5 -306.5t305.5 -127.5t305.5 127.5
t126.5 306.5q0 178 -126.5 305t-305.5 127t-305.5 -127t-126.5 -305z" />
    <glyph glyph-name="ocircumflex" unicode="&#xf4;" horiz-adv-x="1282" 
d="M607 1459h64l243 -265h-124l-152 165l-153 -165h-120zM643 1030q105 0 201 -41t166 -111t111 -167t41 -203q0 -107 -41 -204t-111 -166.5t-166 -111t-201 -41.5q-215 0 -367 153t-152 370q0 142 69.5 262.5t189 190t260.5 69.5zM213 508q0 -179 126.5 -306.5
t305.5 -127.5t305.5 127.5t126.5 306.5q0 178 -126.5 305t-305.5 127t-305.5 -127t-126.5 -305z" />
    <glyph glyph-name="otilde" unicode="&#xf5;" horiz-adv-x="1282" 
d="M508 1372q48 0 96 -26t89.5 -51.5t73.5 -25.5q22 0 43 22.5t21 69.5l55 -9q0 -52 -8 -83q-25 -94 -111 -94q-43 0 -92.5 28.5t-93.5 56.5t-73 28q-25 0 -47 -21.5t-23 -72.5h-60q0 51 9 84q30 94 121 94zM643 1030q105 0 201 -41t166 -111t111 -167t41 -203
q0 -107 -41 -204t-111 -166.5t-166 -111t-201 -41.5q-215 0 -367 153t-152 370q0 142 69.5 262.5t189 190t260.5 69.5zM213 508q0 -179 126.5 -306.5t305.5 -127.5t305.5 127.5t126.5 306.5q0 178 -126.5 305t-305.5 127t-305.5 -127t-126.5 -305z" />
    <glyph glyph-name="odieresis" unicode="&#xf6;" horiz-adv-x="1282" 
d="M376 1278q0 34 24.5 58.5t58.5 24.5t59.5 -24.5t25.5 -58.5t-25.5 -59t-59.5 -25t-58.5 25t-24.5 59zM734 1278q0 34 25 58.5t59 24.5q33 0 58.5 -25t25.5 -58t-25.5 -58.5t-58.5 -25.5q-34 0 -59 25t-25 59zM643 1030q105 0 201 -41t166 -111t111 -167t41 -203
q0 -107 -41 -204t-111 -166.5t-166 -111t-201 -41.5q-215 0 -367 153t-152 370q0 142 69.5 262.5t189 190t260.5 69.5zM213 508q0 -179 126.5 -306.5t305.5 -127.5t305.5 127.5t126.5 306.5q0 178 -126.5 305t-305.5 127t-305.5 -127t-126.5 -305z" />
    <glyph glyph-name="divide" unicode="&#xf7;" horiz-adv-x="1078" 
d="M457 468q0 34 24.5 59.5t58.5 25.5t59 -25.5t25 -59.5t-25 -58.5t-59 -24.5t-58.5 24.5t-24.5 58.5zM457 1023q0 34 24.5 59.5t58.5 25.5t59 -25.5t25 -59.5t-25 -58.5t-59 -24.5t-58.5 24.5t-24.5 58.5zM938 790v-89h-795v89h795z" />
    <glyph glyph-name="oslash" unicode="&#xf8;" horiz-adv-x="1284" 
d="M929 1126l83 -45l-74 -143q104 -72 165 -185t61 -245q0 -107 -41 -204t-111 -166.5t-166 -111t-201 -41.5q-100 0 -195 35l-67 -129l-81 40l67 131q-112 70 -178.5 188.5t-66.5 257.5q0 142 69.5 262.5t189 190t260.5 69.5q109 0 210 -45zM895 857l-402 -759
q72 -26 152 -26q179 0 305.5 127t126.5 305q0 109 -48.5 201t-133.5 152zM412 137l400 765q-83 36 -169 36q-180 0 -307.5 -127.5t-127.5 -306.5q0 -114 55 -210.5t149 -156.5z" />
    <glyph glyph-name="ugrave" unicode="&#xf9;" horiz-adv-x="1066" 
d="M235 1459h171l222 -265h-90zM168 1014h90v-627q0 -131 79 -222t193 -91q115 0 198.5 91.5t83.5 221.5v627h90v-627q0 -165 -107 -283.5t-261 -118.5q-153 0 -259.5 118.5t-106.5 283.5v627z" />
    <glyph glyph-name="uacute" unicode="&#xfa;" horiz-adv-x="1066" 
d="M671 1459h171l-302 -265h-92zM168 1014h90v-627q0 -131 79 -222t193 -91q115 0 198.5 91.5t83.5 221.5v627h90v-627q0 -165 -107 -283.5t-261 -118.5q-153 0 -259.5 118.5t-106.5 283.5v627z" />
    <glyph glyph-name="ucircumflex" unicode="&#xfb;" horiz-adv-x="1066" 
d="M502 1459h64l242 -265h-121l-153 165l-151 -165h-123zM168 1014h90v-627q0 -131 79 -222t193 -91q115 0 198.5 91.5t83.5 221.5v627h90v-627q0 -165 -107 -283.5t-261 -118.5q-153 0 -259.5 118.5t-106.5 283.5v627z" />
    <glyph glyph-name="udieresis" unicode="&#xfc;" horiz-adv-x="1066" 
d="M278 1278q0 34 24.5 58.5t58.5 24.5t59.5 -24.5t25.5 -58.5t-25.5 -59t-59.5 -25t-58.5 25t-24.5 59zM636 1278q0 34 24 58.5t58 24.5t59.5 -24.5t25.5 -58.5t-25.5 -59t-59.5 -25t-58 25t-24 59zM168 1014h90v-627q0 -131 79 -222t193 -91q115 0 198.5 91.5t83.5 221.5
v627h90v-627q0 -165 -107 -283.5t-261 -118.5q-153 0 -259.5 118.5t-106.5 283.5v627z" />
    <glyph glyph-name="yacute" unicode="&#xfd;" horiz-adv-x="950" 
d="M611 1459h170l-300 -265h-94zM333 -521h-98l197 519l-396 1016h96l349 -895l341 895h94z" />
    <glyph glyph-name="thorn" unicode="&#xfe;" horiz-adv-x="1232" 
d="M258 -508h-90v2001h90v-679q65 99 165 157.5t215 58.5q130 0 240 -71.5t172.5 -191.5t62.5 -259q0 -140 -62.5 -260.5t-172.5 -191.5t-240 -71q-115 0 -215 58t-165 156v-707zM258 544v-67q10 -169 119.5 -283.5t258.5 -114.5q157 0 271 126t114 305q0 180 -114 306
t-271 126q-149 0 -258.5 -114.5t-119.5 -283.5z" />
    <glyph glyph-name="ydieresis" unicode="&#xff;" horiz-adv-x="946" 
d="M218 1292q0 34 25.5 59.5t58.5 25.5t58 -25.5t25 -59.5t-25 -58.5t-58 -24.5t-58.5 25t-25.5 58zM575 1292q0 34 25.5 59.5t59.5 25.5t58.5 -25.5t24.5 -59.5t-24.5 -58.5t-58.5 -24.5t-59.5 24.5t-25.5 58.5zM36 1014h92l349 -895l341 895h96l-583 -1535h-96l197 519z
" />
    <glyph glyph-name="dotlessi" unicode="&#x131;" horiz-adv-x="422" 
d="M258 0h-90v1014h90v-1014z" />
    <glyph glyph-name="Lslash" unicode="&#x141;" horiz-adv-x="1080" 
d="M1012 0h-869v508l-158 -141v118l158 141v867h90v-786l346 307v-119l-346 -306v-499h779v-90z" />
    <glyph glyph-name="lslash" unicode="&#x142;" horiz-adv-x="373" 
d="M233 0h-90v508l-113 -102v120l113 100v867h90v-786l113 101v-118l-113 -101v-589z" />
    <glyph glyph-name="OE" unicode="&#x152;" horiz-adv-x="1920" 
d="M1081 912h721v-90h-719v-732h779v-90h-832q-78 -15 -150 -15q-154 0 -294 60t-241 162t-161 242.5t-60 295.5t60 296t161 243t241 162t294 60q82 0 150 -13h830v-90h-779v-491zM994 83v1325q-52 9 -114 9q-182 0 -335.5 -90t-242.5 -244.5t-89 -337.5q0 -136 52.5 -260
t141.5 -214t213 -143.5t260 -53.5q35 0 114 9z" />
    <glyph glyph-name="oe" unicode="&#x153;" horiz-adv-x="2125" 
d="M213 508q0 -179 126.5 -306.5t305.5 -127.5t305.5 127.5t126.5 306.5q0 178 -126.5 305t-305.5 127t-305.5 -127t-126.5 -305zM2006 504h-842q0 -179 111 -302t265 -123q98 0 181.5 52.5t134.5 146.5l78 -45q-62 -112 -166.5 -180t-227.5 -68q-141 0 -255 83.5
t-168 220.5q-65 -137 -193 -220.5t-281 -83.5q-215 0 -367 153t-152 370q0 142 69.5 262.5t189 190t260.5 69.5q153 0 281 -84t193 -220q54 136 168 220t253 84q182 0 315 -139.5t150 -337.5zM1173 593h736q-27 152 -131 250.5t-238 98.5q-133 0 -236.5 -98.5t-130.5 -250.5
z" />
    <glyph glyph-name="Scaron" unicode="&#x160;" horiz-adv-x="1076" 
d="M566 1583h-64l-242 264h123l151 -164l153 164h121zM914 1229l-83 -29q-37 107 -117.5 162t-175.5 55q-114 0 -187 -74t-73 -181q0 -55 25 -100t67 -77t96.5 -59.5t115 -52.5t121 -52.5t115 -63.5t96.5 -80t67 -108t25 -142q0 -130 -67 -233t-174.5 -157t-230.5 -54
q-81 0 -155 26t-138 77.5t-109 137.5t-60 197l89 11q13 -92 49 -162.5t88 -112t111 -62t125 -20.5q99 0 185 41.5t141.5 124t55.5 189.5q0 67 -25 121t-67 91t-96.5 68t-115 56.5t-121 51.5t-115 58t-96.5 70t-67 93.5t-25 124.5q0 143 98.5 245t251.5 102q120 0 225 -74.5
t151 -207.5z" />
    <glyph glyph-name="scaron" unicode="&#x161;" horiz-adv-x="791" 
d="M432 1104h-65l-241 266h122l153 -163l152 163h120zM662 835l-83 -27q-23 67 -72 100.5t-106 33.5q-67 0 -114.5 -42t-47.5 -114q0 -43 26.5 -77t69.5 -57t94.5 -44.5t103.5 -48t95 -59.5t69.5 -86t26.5 -121q0 -139 -100 -224.5t-231 -85.5q-76 0 -141.5 30.5
t-115.5 101.5t-64 174l89 13q14 -114 81 -172t154 -58q96 0 168 62t72 161q0 54 -27 95.5t-69.5 67.5t-94.5 49t-104 47t-94.5 52.5t-69.5 75t-27 106.5q0 114 73.5 179t177.5 65q85 0 157.5 -50.5t103.5 -146.5z" />
    <glyph glyph-name="Ydieresis" unicode="&#x178;" horiz-adv-x="1228" 
d="M356 1694q0 34 24.5 59.5t57.5 25.5q34 0 58.5 -25.5t24.5 -59.5t-24.5 -58t-58.5 -24t-58 24t-24 58zM714 1694q0 34 24.5 59.5t58.5 25.5t58.5 -25.5t24.5 -59.5t-24.5 -58t-58.5 -24t-58.5 24t-24.5 58zM36 1493h105l474 -752l475 752h104l-534 -848v-645h-89v645z
" />
    <glyph glyph-name="Zcaron" unicode="&#x17d;" horiz-adv-x="1185" 
d="M626 1583h-64l-242 264h120l153 -164l152 164h124zM134 1493h996l-927 -1403h950l-32 -90h-1085l929 1403h-860z" />
    <glyph glyph-name="zcaron" unicode="&#x17e;" horiz-adv-x="888" 
d="M508 1104h-68l-241 266h123l152 -163l152 163h124zM158 1014h695l-648 -924h645l-28 -90h-786l651 925h-559z" />
    <glyph glyph-name="florin" unicode="&#x192;" horiz-adv-x="809" 
d="M886 875l-33 -89h-381l-130 -645q-21 -106 -83.5 -176t-145.5 -99.5t-187 -29.5v59q123 0 212 69.5t114 193.5l126 628h-188l32 89h174l67 327q32 155 144.5 229.5t272.5 74.5v-58q-124 0 -213 -70t-114 -194l-62 -309h395z" />
    <glyph glyph-name="dotlessj" unicode="&#x237;" horiz-adv-x="415" 
d="M168 1014h90v-1012q0 -129 -84 -221.5t-204 -92.5v77q81 0 139.5 70.5t58.5 166.5v1012z" />
    <glyph glyph-name="apostrophemod" unicode="&#x2bc;" horiz-adv-x="523" 
d="M231 1506q47 0 86 -36t39 -103q0 -82 -43 -158.5t-112 -131.5h-75q53 43 89.5 110.5t36.5 119.5q-6 -2 -21 -2q-42 0 -72.5 29.5t-30.5 71.5q0 41 30.5 70.5t72.5 29.5z" />
    <glyph glyph-name="circumflex" unicode="&#x2c6;" horiz-adv-x="690" 
d="M314 1728h64l242 -267h-120l-154 166l-151 -166h-123z" />
    <glyph glyph-name="caron" unicode="&#x2c7;" horiz-adv-x="690" 
d="M378 1461h-64l-242 267h123l151 -163l154 163h120z" />
    <glyph glyph-name="minusmod" unicode="&#x2d7;" horiz-adv-x="856" 
d="M737 643v-90h-613v90h613z" />
    <glyph glyph-name="dotaccent" unicode="&#x2d9;" horiz-adv-x="570" 
d="M203 1323q0 33 25 58t58 25q34 0 58.5 -25t24.5 -58q0 -34 -24.5 -59.5t-58.5 -25.5q-33 0 -58 25.5t-25 59.5z" />
    <glyph glyph-name="ring" unicode="&#x2da;" horiz-adv-x="570" 
d="M286 1551q90 0 153 -62t63 -152q0 -89 -63 -152.5t-153 -63.5q-88 0 -151 63.5t-63 152.5q0 90 62.5 152t151.5 62zM161 1337q0 -51 37 -88.5t88 -37.5q52 0 89 37.5t37 88.5q0 52 -36.5 88t-89.5 36q-51 0 -88 -36.5t-37 -87.5z" />
    <glyph glyph-name="ogonek" unicode="&#x2db;" horiz-adv-x="603" 
d="M419 -289l44 -53q-71 -49 -147 -49q-72 0 -122.5 46t-50.5 119q0 101 119 226h97q-124 -125 -124 -224q0 -41 31.5 -66.5t75.5 -25.5q38 0 77 27z" />
    <glyph glyph-name="tilde" unicode="&#x2dc;" horiz-adv-x="648" 
d="M521 1489h58q0 -93 -28.5 -138.5t-91.5 -45.5q-42 0 -91 27.5t-93.5 54.5t-75.5 27q-23 0 -44.5 -20.5t-22.5 -70.5h-60q0 179 127 179q37 0 76.5 -16.5t67 -36t59.5 -36t57 -16.5q22 0 42 22t20 70z" />
    <glyph glyph-name="hungarumlaut" unicode="&#x2dd;" horiz-adv-x="1017" 
d="M430 1551h168l-286 -357h-109zM818 1551h167l-287 -357h-107z" />
    <glyph glyph-name="tildecomb" unicode="&#x303;" 
d="M-258 1534h90q0 -93 -50 -138.5t-160 -45.5q-58 0 -125 17t-117 37.5t-109 37.5t-103 17q-129 0 -132 -91h-90q0 179 222 179q83 0 168 -26.5t158.5 -52.5t127.5 -26q29 0 53.5 6.5t45.5 28t21 57.5z" />
    <glyph glyph-name="macronbelowcmb" unicode="&#x331;" 
d="M-168 -126v-90h-886v90h886z" />
    <glyph glyph-name="uni0E00" unicode="&#xe00;" horiz-adv-x="718" 
 />
    <glyph glyph-name="uni0E01" unicode="&#xe01;" horiz-adv-x="1179" 
d="M218 859l167 -96q-66 -31 -96.5 -78t-30.5 -132v-553h-90v553q0 60 34 115t82 91l-156 83q19 80 57.5 144.5t84 105t100 68t104 38.5t97.5 11q120 0 222 -59.5t161.5 -162.5t59.5 -224v-763h-89v763q0 81 -30 149.5t-80 113t-113 69t-131 24.5q-117 0 -216 -66.5
t-137 -193.5z" />
    <glyph glyph-name="uni0E02" unicode="&#xe02;" horiz-adv-x="1221" 
d="M361 1104l30 90h220v-359q0 -68 -48 -116t-115 -48h-190v-241q0 -148 103 -252t250 -104q148 0 252 104t104 252v764h90v-764q0 -183 -131 -314t-315 -131q-183 0 -313 131t-130 314v331h280q32 0 52.5 21.5t20.5 52.5v269h-160z" />
    <glyph glyph-name="uni0E03" unicode="&#xe03;" horiz-adv-x="1221" 
d="M197 1130l42 79q95 -52 167 -156l120 141h85v-359q0 -68 -48 -116t-115 -48h-190v-241q0 -148 103.5 -252t249.5 -104q148 0 252 104t104 252v764h90v-764q0 -184 -130.5 -314.5t-315.5 -130.5q-183 0 -313 130.5t-130 314.5v331h280q29 0 51 22t22 52v218l-136 -164
q-46 107 -96 164q-41 49 -92 77z" />
    <glyph glyph-name="uni0E04" unicode="&#xe04;" horiz-adv-x="1221" 
d="M611 643l-30 -90h-323v-553h-90v763q0 185 130 315.5t313 130.5q185 0 315.5 -130.5t130.5 -315.5v-763h-90v763q0 148 -104 252t-252 104t-250.5 -103.5t-102.5 -252.5v-120h353z" />
    <glyph glyph-name="uni0E05" unicode="&#xe05;" horiz-adv-x="1221" 
d="M611 643l-30 -90h-323v-553h-90v812q0 120 49.5 219t143.5 160l35 24l25 -36q107 -158 188 -158q95 6 194 154l23 36l35 -20q96 -56 145 -157t51 -222v-812h-90v812q0 181 -119 278q-122 -159 -237 -159q-118 0 -235 159q-118 -94 -118 -278v-169h353z" />
    <glyph glyph-name="uni0E06" unicode="&#xe06;" horiz-adv-x="1221" 
d="M258 671v-116q0 -74 43 -160.5t107.5 -156.5t144.5 -117t148 -47q61 0 109 21.5t77 56.5t47.5 83t25.5 95t7 100v764h90v-764q0 -93 -21 -172t-63 -141t-111.5 -97t-160.5 -35q-116 0 -238 101.5t-205 246.5v-333h-90v761h280q29 0 51 22t22 52v218l-136 -164
q-46 107 -96 164q-41 49 -92 77l42 79q95 -52 167 -156l120 141h85v-359q0 -68 -48 -116t-115 -48h-190z" />
    <glyph glyph-name="uni0E07" unicode="&#xe07;" horiz-adv-x="1221" 
d="M258 867v-437q0 -148 103 -252t250 -104q148 0 252 104t104 252v320q0 148 -104 251t-252 103v90q184 0 315 -130.5t131 -313.5v-320q0 -183 -131 -314t-315 -131q-183 0 -313 131t-130 314v405z" />
    <glyph glyph-name="uni0E08" unicode="&#xe08;" horiz-adv-x="1132" 
d="M521 553l32 90h325v120q0 148 -104.5 252t-252.5 104q-147 0 -250 -104t-103 -252h-89q0 121 59.5 224t161 162.5t221.5 59.5q185 0 315.5 -130.5t130.5 -315.5v-763h-89v553h-357z" />
    <glyph glyph-name="uni0E09" unicode="&#xe09;" horiz-adv-x="1132" 
d="M878 0v320q-78 -142 -188.5 -235.5t-223.5 -93.5q-321 0 -325 445v94h-107l28 90h169v-184q1 -133 30.5 -213.5t78.5 -111t123 -30.5q93 0 191.5 77.5t161 188.5t62.5 208v208q0 148 -104.5 252t-252.5 104q-147 0 -250 -104t-103 -252h-89q0 121 59.5 224t161 162.5
t221.5 59.5q185 0 315.5 -130.5t130.5 -315.5v-763h-89z" />
    <glyph glyph-name="uni0E0A" unicode="&#xe0a;" horiz-adv-x="1221" 
d="M168 430v331h280q32 0 52.5 21.5t20.5 52.5v269h-160l30 90h220v-233h192q79 0 121.5 54.5t42.5 139.5v39h90v-39q0 -74 -34.5 -138t-93.5 -103q59 -41 93.5 -104.5t34.5 -138.5v-241q0 -183 -131 -314t-315 -131q-183 0 -313 131t-130 314zM803 871h-192v-36
q0 -68 -48 -116t-115 -48h-190v-241q0 -148 103 -252t250 -104q148 0 252 104t104 252v241q0 86 -43 143t-121 57z" />
    <glyph glyph-name="uni0E0B" unicode="&#xe0b;" horiz-adv-x="1221" 
d="M611 961h192q79 0 121.5 54.5t42.5 139.5v39h90v-39q0 -74 -34.5 -138t-93.5 -103q59 -41 93.5 -104.5t34.5 -138.5v-241q0 -183 -131 -314t-315 -131q-183 0 -313 131t-130 314v331h280q29 0 51 22t22 52v218l-136 -164q-46 107 -96 164q-41 49 -92 77l42 79
q95 -52 167 -156l120 141h85v-233zM258 671v-241q0 -148 103 -252t250 -104q148 0 252 104t104 252v241q0 86 -43 143t-121 57h-192v-36q0 -68 -48 -116t-115 -48h-190z" />
    <glyph glyph-name="uni0E0C" unicode="&#xe0c;" horiz-adv-x="1886" 
d="M376 90l-30 -90h-178v553q0 60 34 115t82 91l-156 83q19 80 57.5 144.5t84 105t100 68t104 38.5t97.5 11q120 0 222 -59.5t161.5 -162.5t59.5 -224v-210q0 -104 56 -216.5t146.5 -188.5t180.5 -76q114 0 174.5 80.5t60.5 274.5v767h89v-767q0 -444 -324 -444
q-109 0 -210.5 88.5t-172.5 223.5v-295h-89v763q0 81 -30 149.5t-80 113t-113 69t-131 24.5q-117 0 -216 -66.5t-137 -193.5l167 -96q-66 -31 -96.5 -78t-30.5 -132v-463h118z" />
    <glyph glyph-name="uni0E0D" unicode="&#xe0d;" horiz-adv-x="1886" 
d="M376 90l-30 -90h-178v553q0 60 34 115t82 91l-156 83q19 80 57.5 144.5t84 105t100 68t104 38.5t97.5 11q120 0 222 -59.5t161.5 -162.5t59.5 -224v-333q0 -148 92.5 -252t220.5 -104t219.5 104t91.5 252v764h83v-1093q0 -184 -112.5 -313.5t-281.5 -129.5
q-94 0 -174 42.5t-134 118.5l75 44q94 -121 233 -121q128 0 219.5 104t91.5 252v47q-54 -75 -134.5 -117.5t-176.5 -42.5q-110 0 -203 60t-146 161.5t-53 220.5v336q0 81 -30 149.5t-80 113t-113 69t-131 24.5q-117 0 -216 -66.5t-137 -193.5l167 -96q-66 -31 -96.5 -78
t-30.5 -132v-463h118z" />
    <glyph glyph-name="uni0E0E" unicode="&#xe0e;" horiz-adv-x="1179" 
d="M62 0l30 90h76v463q0 60 34 115t82 91l-156 83q19 80 57.5 144.5t84 105t100 68t104 38.5t97.5 11q120 0 222 -59.5t161.5 -162.5t59.5 -224v-1184h-130l-248 163l-230 -163h-395l32 90h333l252 181l278 -181h19v1094q0 81 -30 149.5t-80 113t-113 69t-131 24.5
q-117 0 -216 -66.5t-137 -193.5l167 -96q-66 -31 -96.5 -78t-30.5 -132v-553h-196z" />
    <glyph glyph-name="uni0E0F" unicode="&#xe0f;" horiz-adv-x="1179" 
d="M171 -331l169 194l198 -179l186 179l190 -194h11v1094q0 81 -30 149.5t-80 113t-113 69t-131 24.5q-117 0 -216 -66.5t-137 -193.5l167 -96q-66 -31 -96.5 -78t-30.5 -132v-553h-196l30 90h76v463q0 60 34 115t82 91l-156 83q19 80 57.5 144.5t84 105t100 68t104 38.5
t97.5 11q120 0 222 -59.5t161.5 -162.5t59.5 -224v-1184h-136l-154 159l-180 -174l-192 174l-139 -159h-202l32 90h128z" />
    <glyph glyph-name="uni0E10" unicode="&#xe10;" horiz-adv-x="1168" 
d="M914 -331v173h-70l31 89h128v-352h-136l-158 159l-179 -174l-190 174l-141 -159h-199l30 90h128l171 194l197 -179l183 179l193 -194h12zM914 643v120q0 148 -104.5 252t-252.5 104q-147 0 -250.5 -104t-103.5 -252h-89q0 121 59.5 224t161.5 162.5t222 59.5
q140 0 265 -88l111 77l52 -77l-96 -62q114 -120 114 -296v-763h-89v553h-357l32 90h325z" />
    <glyph glyph-name="uni0E11" unicode="&#xe11;" horiz-adv-x="1221" 
d="M168 0v555l215 287v211l-139 -164q-40 93 -77 142q-48 64 -111 99l42 79q95 -52 167 -156l120 141h87v-247q238 262 378 262q111 0 159 -72t48 -232v-905h-90v905q0 122 -27 168t-90 46q-58 0 -169.5 -97t-224.5 -231.5t-198 -264.5v-526h-90z" />
    <glyph glyph-name="uni0E12" unicode="&#xe12;" horiz-adv-x="1946" 
d="M391 636l30 90h83q93 0 161 -53.5t100 -134.5t32 -177q0 -47 -8.5 -94.5t-31.5 -99.5t-57.5 -91.5t-93 -65t-132.5 -25.5q-111 0 -192 83t-119.5 211.5t-38.5 282.5q0 189 75.5 367.5t212.5 281.5q125 -192 224 -192q89 0 217 190q102 -70 161.5 -172.5t59.5 -214.5v-267
q0 -103 56 -215.5t146.5 -189t180.5 -76.5q54 0 95.5 18t73.5 58t49 110.5t17 169.5v764h90v-764q0 -232 -86 -338.5t-239 -106.5q-110 0 -210.5 88.5t-172.5 223.5v-297h-89v822q0 165 -114 261q-56 -72 -118 -113t-117 -41q-121 0 -240 154q-88 -85 -135.5 -225
t-47.5 -296q0 -128 29 -237.5t90 -180t142 -70.5q53 0 95.5 19.5t67.5 49.5t41.5 70t22.5 76t6 72q0 112 -54 193.5t-149 81.5h-113z" />
    <glyph glyph-name="uni0E13" unicode="&#xe13;" horiz-adv-x="1886" 
d="M218 859l167 -96q-66 -31 -96.5 -78t-30.5 -132v-463h118l-30 -90h-178v553q0 60 34 115t82 91l-156 83q19 80 57.5 144.5t84 105t100 68t104 38.5t97.5 11q120 0 222 -59.5t161.5 -162.5t59.5 -224v-336q0 -100 16.5 -170.5t48.5 -110t72.5 -57t95.5 -17.5q90 0 181 76
t147.5 188.5t56.5 216.5v641h89v-1194h-89v295q-69 -135 -170 -223.5t-211 -88.5q-326 0 -326 444v336q0 81 -30 149.5t-80 113t-113 69t-131 24.5q-117 0 -216 -66.5t-137 -193.5z" />
    <glyph glyph-name="uni0E14" unicode="&#xe14;" horiz-adv-x="1239" 
d="M391 636l30 90h83q93 0 161 -53.5t100 -134.5t32 -177q0 -161 -84 -268.5t-239 -107.5q-109 0 -190 80t-120.5 209t-39.5 288q0 94 18.5 184.5t58.5 175t97 148t141.5 101.5t184.5 38q121 0 224.5 -59.5t164.5 -162.5t61 -224v-763h-89v763q0 148 -106 252t-255 104
q-103 0 -184 -49.5t-129.5 -131.5t-73 -178t-24.5 -198q0 -134 30 -243.5t90 -177t141 -67.5q111 0 172 82t61 205q0 112 -54 193.5t-149 81.5h-113z" />
    <glyph glyph-name="uni0E15" unicode="&#xe15;" horiz-adv-x="1239" 
d="M391 636l30 90h83q93 0 161 -53.5t100 -134.5t32 -177q0 -47 -8.5 -94.5t-31.5 -99.5t-57.5 -91.5t-93 -65t-132.5 -25.5q-111 0 -192 83t-119.5 211.5t-38.5 282.5q0 189 75.5 367.5t212.5 281.5q125 -192 224 -192q89 0 217 190q102 -70 161.5 -172.5t59.5 -214.5v-822
h-89v822q0 165 -114 261q-56 -72 -118 -113t-117 -41q-121 0 -240 154q-88 -85 -135.5 -225t-47.5 -296q0 -128 29 -237.5t90 -180t142 -70.5q53 0 95.5 19.5t67.5 49.5t41.5 70t22.5 76t6 72q0 112 -54 193.5t-149 81.5h-113z" />
    <glyph glyph-name="uni0E16" unicode="&#xe16;" horiz-adv-x="1179" 
d="M218 859l167 -96q-66 -31 -96.5 -78t-30.5 -132v-463h118l-30 -90h-178v553q0 60 34 115t82 91l-156 83q19 80 57.5 144.5t84 105t100 68t104 38.5t97.5 11q120 0 222 -59.5t161.5 -162.5t59.5 -224v-763h-89v763q0 81 -30 149.5t-80 113t-113 69t-131 24.5
q-117 0 -216 -66.5t-137 -193.5z" />
    <glyph glyph-name="uni0E17" unicode="&#xe17;" horiz-adv-x="1221" 
d="M168 0v1194h90v-335q83 146 205 248t238 102q91 0 160.5 -35t111.5 -97t63 -141t21 -173v-763h-90v763q0 68 -12 126.5t-40.5 112.5t-83 85.5t-130.5 31.5q-91 0 -196 -77t-176 -191t-71 -213v-638h-90z" />
    <glyph glyph-name="uni0E18" unicode="&#xe18;" horiz-adv-x="1221" 
d="M168 0v455h90v-365h353q148 0 252 104t104 252v107h-799v210q0 185 130 315.5t313 130.5q185 0 315.5 -130.5t130.5 -315.5h-90q0 148 -104 252t-252 104t-250.5 -103.5t-102.5 -252.5v-120h799v-197q0 -185 -130.5 -315.5t-315.5 -130.5h-443z" />
    <glyph glyph-name="uni0E19" unicode="&#xe19;" horiz-adv-x="1221" 
d="M168 1194h90v-758q0 -53 7 -100.5t25.5 -95.5t47.5 -82t76 -55.5t107 -21.5q71 0 151.5 47t145 116.5t107 154.5t42.5 156v639h90v-1194h-90v333q-84 -144 -207 -243t-239 -99q-91 0 -160 35t-110.5 97.5t-62 141t-20.5 171.5v758z" />
    <glyph glyph-name="uni0E1A" unicode="&#xe1a;" horiz-adv-x="1221" 
d="M168 1194h90v-764q0 -148 103 -252t250 -104q148 0 252 104t104 252v764h90v-764q0 -183 -131 -314t-315 -131q-183 0 -313 131t-130 314v764z" />
    <glyph glyph-name="uni0E1B" unicode="&#xe1b;" horiz-adv-x="1221" 
d="M168 1194h90v-764q0 -148 103 -252t250 -104q148 0 252 104t104 252v1063h90v-1063q0 -183 -131 -314t-315 -131q-183 0 -313 131t-130 314v764z" />
    <glyph glyph-name="uni0E1C" unicode="&#xe1c;" horiz-adv-x="1311" 
d="M607 1194h85v-854q0 -40 5 -76t17.5 -71.5t32.5 -61t53 -41.5t75 -16q52 0 89.5 23.5t56.5 63.5t27.5 84t8.5 95v854h90v-854q0 -177 -76.5 -266t-195.5 -89q-69 0 -129 47t-99 122q-37 -74 -97 -121.5t-129 -47.5q-134 0 -215.5 167.5t-81.5 438.5q0 178 36.5 315.5
t104.5 214.5t156 77v-90q-61 0 -109 -71.5t-73.5 -189t-25.5 -256.5t25.5 -256.5t73.5 -189t109 -71.5q46 0 81 20t54 49.5t31.5 68t16 69t3.5 59.5v854z" />
    <glyph glyph-name="uni0E1D" unicode="&#xe1d;" horiz-adv-x="1311" 
d="M607 1194h85v-854q0 -40 5 -76t17.5 -71.5t32.5 -61t53 -41.5t75 -16q52 0 89.5 23.5t56.5 63.5t27.5 84t8.5 95v1153h90v-1153q0 -177 -76.5 -266t-195.5 -89q-69 0 -129 47t-99 122q-37 -74 -97 -121.5t-129 -47.5q-134 0 -215.5 167.5t-81.5 438.5q0 178 36.5 315.5
t104.5 214.5t156 77v-90q-61 0 -109 -71.5t-73.5 -189t-25.5 -256.5t25.5 -256.5t73.5 -189t109 -71.5q46 0 81 20t54 49.5t31.5 68t16 69t3.5 59.5v854z" />
    <glyph glyph-name="uni0E1E" unicode="&#xe1e;" horiz-adv-x="1365" 
d="M168 1194h90v-854q0 -52 8.5 -95.5t28 -84t58 -63.5t93.5 -23q47 0 82.5 19t55.5 47t33 65.5t17 69.5t4 65v854h90v-854q0 -51 9 -95t29.5 -84t59.5 -63.5t94 -23.5q54 0 93 23.5t59.5 63.5t29 84t8.5 95v854h90v-854q0 -177 -78.5 -266t-201.5 -89q-71 0 -134 48
t-103 125q-38 -77 -101 -125t-134 -48q-124 0 -202 89t-78 266v854z" />
    <glyph glyph-name="uni0E1F" unicode="&#xe1f;" horiz-adv-x="1365" 
d="M168 1194h90v-854q0 -52 8.5 -95.5t28 -84t58 -63.5t93.5 -23q47 0 82.5 19t55.5 47t33 65.5t17 69.5t4 65v854h90v-854q0 -51 9 -95t29.5 -84t59.5 -63.5t94 -23.5q54 0 93 23.5t59.5 63.5t29 84t8.5 95v1153h90v-1153q0 -177 -78.5 -266t-201.5 -89q-71 0 -134 48
t-103 125q-38 -77 -101 -125t-134 -48q-124 0 -202 89t-78 266v854z" />
    <glyph glyph-name="uni0E20" unicode="&#xe20;" horiz-adv-x="1179" 
d="M218 859l167 -96q-66 -31 -96.5 -78t-30.5 -132v-553h-196l30 90h76v463q0 60 34 115t82 91l-156 83q19 80 57.5 144.5t84 105t100 68t104 38.5t97.5 11q120 0 222 -59.5t161.5 -162.5t59.5 -224v-763h-89v763q0 81 -30 149.5t-80 113t-113 69t-131 24.5
q-117 0 -216 -66.5t-137 -193.5z" />
    <glyph glyph-name="uni0E21" unicode="&#xe21;" horiz-adv-x="1221" 
d="M168 1194h90v-639q0 -74 43 -160.5t107.5 -156.5t144.5 -117t148 -47q61 0 109 21.5t77 56.5t47.5 83t25.5 95t7 100v764h90v-764q0 -93 -21 -172t-63 -141t-111.5 -97t-160.5 -35q-116 0 -238 101.5t-205 246.5v-333h-90v1194z" />
    <glyph glyph-name="uni0E22" unicode="&#xe22;" horiz-adv-x="1192" 
d="M940 1194h87v-793q0 -121 -61 -217t-162.5 -147.5t-222.5 -51.5q-122 0 -225 49t-167.5 145.5t-64.5 221.5q0 110 64 193.5t152 112.5h-203v45q0 183 131 314.5t313 131.5v-90q-135 0 -235.5 -89t-114.5 -222v-11h380l-30 -79q-152 0 -259 -85.5t-107 -220.5
q0 -144 107.5 -235.5t262.5 -91.5q150 0 252.5 91.5t102.5 235.5v793z" />
    <glyph glyph-name="uni0E23" unicode="&#xe23;" horiz-adv-x="1221" 
d="M1057 643v-213q0 -183 -131 -314t-315 -131v89q148 0 252 104t104 252v123h-799v210q0 185 130 315.5t313 130.5q185 0 315.5 -130.5t130.5 -315.5h-90q0 148 -104 252t-252 104t-250.5 -103.5t-102.5 -252.5v-120h799z" />
    <glyph glyph-name="uni0E24" unicode="&#xe24;" horiz-adv-x="1179" 
d="M218 859l167 -96q-66 -31 -96.5 -78t-30.5 -132v-463h118l-30 -90h-178v553q0 60 34 115t82 91l-156 83q19 80 57.5 144.5t84 105t100 68t104 38.5t97.5 11q120 0 222 -59.5t161.5 -162.5t59.5 -224v-1218h-89v1218q0 81 -30 149.5t-80 113t-113 69t-131 24.5
q-117 0 -216 -66.5t-137 -193.5z" />
    <glyph glyph-name="uni0E25" unicode="&#xe25;" horiz-adv-x="1221" 
d="M967 0v553h-709v-123q0 -148 103 -252t250 -104v-89q-183 0 -313 131t-130 314v213h799v120q0 148 -104 252t-252 104t-250.5 -103.5t-102.5 -252.5h-90q0 185 130 315.5t313 130.5q185 0 315.5 -130.5t130.5 -315.5v-763h-90z" />
    <glyph glyph-name="uni0E26" unicode="&#xe26;" horiz-adv-x="1179" 
d="M218 859l167 -96q-66 -31 -96.5 -78t-30.5 -132v-553h-196l30 90h76v463q0 60 34 115t82 91l-156 83q19 80 57.5 144.5t84 105t100 68t104 38.5t97.5 11q120 0 222 -59.5t161.5 -162.5t59.5 -224v-1218h-89v1218q0 81 -30 149.5t-80 113t-113 69t-131 24.5
q-117 0 -216 -66.5t-137 -193.5z" />
    <glyph glyph-name="uni0E27" unicode="&#xe27;" horiz-adv-x="1213" 
d="M124 333l84 36q50 -144 154.5 -219.5t226.5 -75.5q108 0 203.5 69t153 191t57.5 266t-57.5 264t-152.5 187.5t-204 67.5q-119 0 -219.5 -80t-151.5 -213l-84 33q61 157 182.5 253.5t272.5 96.5q138 0 254 -83.5t182.5 -223.5t66.5 -304t-66.5 -304.5t-182.5 -224.5
t-254 -84q-159 0 -285 93t-180 255z" />
    <glyph glyph-name="uni0E28" unicode="&#xe28;" horiz-adv-x="1221" 
d="M967 0v763q0 149 -104 253.5t-252 104.5q-147 0 -250 -104.5t-103 -253.5v-120h353l-30 -90h-323v-553h-90v767q0 184 130 314t313 130q155 0 275 -94l108 92l63 -62l-106 -92q106 -123 106 -292v-763h-90z" />
    <glyph glyph-name="uni0E29" unicode="&#xe29;" horiz-adv-x="1219" 
d="M168 1194h90v-764q0 -148 102 -252t249 -104q148 0 252 104t104 252v239h-408v139l90 31v-80h318v435h90v-435h102l-29 -90h-71v-239q0 -183 -131 -314t-315 -131q-183 0 -313 131t-130 314v764z" />
    <glyph glyph-name="uni0E2A" unicode="&#xe2a;" horiz-adv-x="1221" 
d="M258 767h-90q0 184 130 314t313 130q155 0 275 -94l108 92l63 -62l-106 -92q106 -123 106 -292v-763h-90v553h-709v-123q0 -148 103 -252t250 -104v-89q-183 0 -313 131t-130 314v213h799v120q0 148 -104 252t-252 104t-250.5 -102t-102.5 -250z" />
    <glyph glyph-name="uni0E2B" unicode="&#xe2b;" horiz-adv-x="1221" 
d="M168 1194h90v-551q55 123 179.5 247.5t254 205t224.5 102.5l129 -45q-167 -33 -308 -134q77 0 139 -37.5t101 -101t59.5 -142.5t20.5 -165v-573h-90v573q0 66 -13.5 128.5t-43 120t-84.5 92.5t-128 35q-74 0 -180 -97.5t-183 -231t-77 -227.5v-393h-90v1194z" />
    <glyph glyph-name="uni0E2C" unicode="&#xe2c;" horiz-adv-x="1365" 
d="M638 340v854h90v-854q0 -51 9 -95t29.5 -84t59.5 -63.5t94 -23.5q54 0 93 23.5t59.5 63.5t29 84t8.5 95v572q0 84 -42.5 138t-120.5 54h-125v90h125q78 0 120.5 54.5t42.5 139.5v15h90v-15q0 -74 -34.5 -138t-93.5 -103q59 -41 93.5 -104.5t34.5 -138.5v-564
q0 -177 -78.5 -266t-201.5 -89q-76 0 -138 36t-99 107q-36 -71 -97.5 -107t-137.5 -36q-124 0 -202 89t-78 266v854h90v-854q0 -40 5 -76t18 -71.5t34 -61t55 -41.5t78 -16q57 0 97.5 27t59 71t26 84.5t7.5 83.5z" />
    <glyph glyph-name="uni0E2D" unicode="&#xe2d;" horiz-adv-x="1329" 
d="M665 643l-31 -90h-421q15 -201 145 -337.5t304 -136.5q121 0 224.5 68.5t165 188.5t61.5 262t-60 261.5t-163 188.5t-225 69q-154 0 -272.5 -90.5t-159.5 -245.5l-88 25q52 186 194 293.5t326 107.5q149 0 274.5 -83t197.5 -223t72 -303t-72 -303t-197.5 -223t-274.5 -83
t-274 83t-196 222.5t-71 303.5v45h541z" />
    <glyph glyph-name="uni0E2E" unicode="&#xe2e;" horiz-adv-x="1329" 
d="M665 643l-31 -90h-421q15 -201 145 -337.5t304 -136.5q121 0 224.5 68.5t165 188.5t61.5 262t-60 261.5t-163 188.5t-225 69q-154 0 -272.5 -90.5t-159.5 -245.5l-88 25q52 186 194 293.5t326 107.5q154 0 290 -94l102 85l64 -61l-98 -82q87 -86 136.5 -205.5
t49.5 -251.5q0 -163 -72 -303t-197.5 -223t-274.5 -83t-274 83t-196 222.5t-71 303.5v45h541z" />
    <glyph glyph-name="uni0E2F" unicode="&#xe2f;" horiz-adv-x="1125" 
d="M871 0v1027q-35 -46 -80 -88t-104 -82.5t-133 -65t-151 -24.5q-108 0 -193.5 56t-85.5 151t82 166t195 71v-90q-82 0 -137.5 -48t-55.5 -99q0 -33 22 -57.5t55.5 -36.5t63 -17.5t52.5 -5.5q72 0 144.5 28.5t126.5 71t98.5 90.5t69.5 86.5t31 60.5h90v-1194h-90z" />
    <glyph glyph-name="uni0E30" unicode="&#xe30;" horiz-adv-x="603" 
d="M258 959h263l-28 -90h-325v176l90 29v-115zM258 208h263l-28 -89h-325v176l90 30v-117z" />
    <glyph glyph-name="uni0E31" unicode="&#xe31;" 
d="M-463 1439h743l-58 -89h-775v175l90 30v-116z" />
    <glyph glyph-name="uni0E32" unicode="&#xe32;" horiz-adv-x="880" 
d="M626 0v763q0 53 -7 101t-25.5 96t-47.5 82t-76.5 55.5t-108.5 21.5q-109 0 -237 -109v100q118 99 237 99q91 0 160.5 -35t111 -97t62.5 -141t21 -173v-763h-90z" />
    <glyph glyph-name="uni0E33" unicode="&#xe33;" horiz-adv-x="880" 
d="M626 0v763q0 53 -7 101t-25.5 96t-47.5 82t-76.5 55.5t-108.5 21.5q-109 0 -237 -109v100q118 99 237 99q91 0 160.5 -35t111 -97t62.5 -141t21 -173v-763h-90zM-188 1591q56 0 96.5 -40.5t40.5 -97.5q0 -55 -40.5 -96t-96.5 -41t-96.5 41t-40.5 96q0 57 40.5 97.5
t96.5 40.5zM-258 1453q0 -29 20.5 -48t49.5 -19t49 19t20 48q0 30 -20 50t-49 20t-49.5 -20t-20.5 -50z" />
    <glyph glyph-name="uni0E34" unicode="&#xe34;" 
d="M-168 1439v-89h-842l61 89h781z" />
    <glyph glyph-name="uni0E35" unicode="&#xe35;" 
d="M-258 1439v116h90v-205h-842l61 89h691z" />
    <glyph glyph-name="uni0E36" unicode="&#xe36;" 
d="M-215 1623q55 0 95.5 -40.5t40.5 -96.5t-40.5 -96t-95.5 -40h-795l61 89h607q-10 20 -10 47q0 56 41 96.5t96 40.5zM-284 1486q0 -28 20.5 -48.5t48.5 -20.5q29 0 49.5 20.5t20.5 48.5q0 29 -20.5 49t-49.5 20q-28 0 -48.5 -20t-20.5 -49z" />
    <glyph glyph-name="uni0E37" unicode="&#xe37;" 
d="M-258 1439v116h90v-205h-842l61 89h499v116h89v-116h103z" />
    <glyph glyph-name="uni0E38" unicode="&#xe38;" 
d="M-333 -126h165v-348h-90v259h-107z" />
    <glyph glyph-name="uni0E39" unicode="&#xe39;" 
d="M-690 -126h141v-126q0 -61 43 -105t103 -44t102.5 44t42.5 105v126h90v-126q0 -100 -68 -169.5t-167 -69.5q-98 0 -166.5 69.5t-68.5 169.5v37h-80z" />
    <glyph glyph-name="uni0E3A" unicode="&#xe3a;" 
d="M-286 -181q0 30 22 52t51 22q31 0 53.5 -22t22.5 -52q0 -32 -22 -54.5t-54 -22.5q-30 0 -51.5 22.5t-21.5 54.5z" />
    <glyph glyph-name="uni0E3F" unicode="&#xe3f;" horiz-adv-x="1219" 
d="M555 1493h96q156 0 268.5 -105.5t112.5 -252.5q0 -92 -48 -170t-131 -126q130 -50 210.5 -158.5t80.5 -242.5q0 -119 -65 -220t-176 -159.5t-241 -58.5h-109v-150h-90v150h-320v1493h323v148h89v-148zM555 1403v-519h96q125 0 210.5 73.5t85.5 179.5q0 107 -86 186.5
t-210 79.5h-96zM555 90h110q164 0 278 103.5t114 246.5t-114.5 249t-277.5 106h-110v-705zM466 884v519h-233v-519h233zM466 90v705h-233v-705h233z" />
    <glyph glyph-name="uni0E40" unicode="&#xe40;" horiz-adv-x="422" 
d="M258 0h-90v1194h90v-1194z" />
    <glyph glyph-name="uni0E41" unicode="&#xe41;" horiz-adv-x="690" 
d="M258 0h-90v1194h90v-1194zM526 0h-90v1194h90v-1194z" />
    <glyph glyph-name="uni0E42" unicode="&#xe42;" horiz-adv-x="422" 
d="M168 0v1318q0 68 -12.5 126.5t-40.5 112.5t-82.5 85.5t-130.5 31.5l29 90h678l-30 -90h-472q70 -51 110.5 -148.5t40.5 -207.5v-1228h107l-32 -90h-165z" />
    <glyph glyph-name="uni0E43" unicode="&#xe43;" horiz-adv-x="472" 
d="M218 0v1207q0 61 14.5 109t36 77t42.5 52t35.5 46.5t14.5 48.5q0 49 -57 97t-131 48q-78 0 -130 -45t-52 -100h-89q0 92 80.5 165.5t188.5 73.5q111 0 195 -74t84 -163q0 -40 -14.5 -71.5t-36 -55t-42.5 -49t-35.5 -65.5t-14.5 -92v-1119h96l-29 -90h-156z" />
    <glyph glyph-name="uni0E44" unicode="&#xe44;" horiz-adv-x="436" 
d="M181 0v1352q0 97 41 173t109 152h-170l-107 -146l-152 141v121l149 -134l73 107h322v-81q-175 -136 -175 -335v-1260h103l-32 -90h-161z" />
    <glyph glyph-name="uni0E45" unicode="&#xe45;" horiz-adv-x="880" 
d="M626 -455v1218q0 53 -7 101t-25.5 96t-47.5 82t-76.5 55.5t-108.5 21.5q-109 0 -237 -109v100q118 99 237 99q91 0 160.5 -35t111 -97t62.5 -141t21 -173v-1218h-90z" />
    <glyph glyph-name="uni0E46" unicode="&#xe46;" horiz-adv-x="1177" 
d="M922 -455v1273q0 152 -119 263q-114 -156 -237 -156t-244 160q-57 -32 -87 -88.5t-30 -121.5q0 -86 50 -146t141 -60q45 0 81 10l23 -88q-44 -12 -99 -12q-130 0 -203.5 87t-73.5 209q0 100 51.5 188t149.5 128l34 16l19 -32q101 -154 193 -154q89 0 190 154l25 40
l38 -27q87 -61 137.5 -157t50.5 -207v-1279h-90z" />
    <glyph glyph-name="uni0E47" unicode="&#xe47;" 
d="M-114 1623h-612q-60 0 -96.5 -30t-36.5 -64q0 -32 34.5 -60t87.5 -30l164 103l199 -107q30 -16 88 -16q42 0 87 14l31 -83q-65 -23 -118 -23q-75 0 -124 27l-156 88l-143 -92q-95 0 -166.5 48.5t-71.5 132.5q0 79 68.5 130.5t154.5 51.5h641z" />
    <glyph glyph-name="uni0E48" unicode="&#xe48;" 
d="M-168 1683h-90v244h90v-244z" />
    <glyph glyph-name="uni0E49" unicode="&#xe49;" 
d="M-436 1683v107q0 45 -45 45h-76l29 90h47q41 0 70 -15.5t41.5 -39t18 -43.5t5.5 -37v-17h380l-32 -90h-438z" />
    <glyph glyph-name="uni0E4A" unicode="&#xe4a;" 
d="M-9 1683v190l-213 -156q-10 36 -14 49.5t-18.5 46.5t-29 48.5t-41.5 29.5t-60 14q-56 0 -81 -22t-25 -48q0 -23 17 -41.5t44 -18.5h20v-90h-20q-65 0 -108 46t-43 104q0 66 51 113t143 47q72 0 124 -38.5t77 -102.5l156 113h111v-194h293l-32 -90h-351z" />
    <glyph glyph-name="uni0E4B" unicode="&#xe4b;" 
d="M-342 1775v85h84v92h90v-90h87v-89h-87v-90h-90v92h-84z" />
    <glyph glyph-name="uni0E4C" unicode="&#xe4c;" 
d="M-258 1683v65q0 17 5 36.5t18 43t42 39t69 15.5h184l-30 -89h-154q-25 0 -34.5 -14t-9.5 -31v-65h-90z" />
    <glyph glyph-name="uni0E4D" unicode="&#xe4d;" 
d="M-213 1591q57 0 98 -40.5t41 -97.5q0 -56 -41 -96.5t-98 -40.5q-55 0 -95.5 41t-40.5 96q0 57 40.5 97.5t95.5 40.5zM-280 1453q0 -29 19.5 -48t47.5 -19q30 0 50 19t20 48q0 30 -20 50t-50 20q-28 0 -47.5 -20t-19.5 -50z" />
    <glyph glyph-name="uni0E4E" unicode="&#xe4e;" 
d="M-440 1574l62 -36q-24 -39 -70.5 -59t-100.5 -20q-89 0 -150.5 44.5t-61.5 115.5q0 96 67 154.5t181 80.5q-51 43 -51 113q0 108 115 177t278 69q61 0 117 -8l-10 -74q-53 9 -109 9q-128 0 -223 -49t-95 -124q0 -43 44.5 -69t104.5 -33h64l-71 -75h-27q-57 0 -107.5 -8
t-98.5 -26.5t-76.5 -55t-28.5 -86.5q0 -36 42 -59.5t96 -23.5q44 0 71.5 13.5t37.5 29.5z" />
    <glyph glyph-name="uni0E4F" unicode="&#xe4f;" horiz-adv-x="1465" 
d="M734 1209q166 0 307 -82.5t222.5 -223t81.5 -305.5q0 -125 -48.5 -238t-130 -195.5t-195 -131t-237.5 -48.5q-166 0 -306.5 82t-222 223.5t-81.5 307.5q0 165 81.5 305.5t222 223t306.5 82.5zM213 598q0 -214 152.5 -366.5t366.5 -152.5q141 0 260.5 69.5t189 189
t69.5 260.5t-69.5 260.5t-189 189t-260.5 69.5q-214 0 -366.5 -152.5t-152.5 -366.5zM421 598q0 130 92 222t221 92t221 -92t92 -222q0 -131 -92 -222.5t-221 -91.5t-221 91.5t-92 222.5zM513 598q0 -93 64.5 -157.5t156.5 -64.5t156.5 64t64.5 158q0 91 -65 156.5
t-156 65.5t-156 -65.5t-65 -156.5z" />
    <glyph glyph-name="uni0E50" unicode="&#xe50;" horiz-adv-x="1401" 
d="M701 1000q157 0 290 -66.5t211 -183.5t78 -257q0 -141 -78 -258t-211 -183.5t-290 -66.5q-156 0 -288.5 66.5t-210.5 183.5t-78 258q0 140 78 257t210.5 183.5t288.5 66.5zM213 493q0 -171 142 -295t346 -124t347 124t143 295q0 111 -64.5 207.5t-178 154t-247.5 57.5
t-247 -57.5t-177 -154t-64 -207.5z" />
    <glyph glyph-name="uni0E51" unicode="&#xe51;" horiz-adv-x="1401" 
d="M690 -126l2 88q131 0 244 62t184 183t71 276q0 119 -65 218t-177.5 155t-247.5 56q-134 0 -247 -57.5t-177 -154t-64 -207.5q0 -135 97.5 -221t233.5 -86q87 0 164 40t131 112l73 -54q-68 -90 -163.5 -139t-204.5 -49q-110 0 -205.5 48t-155 140t-59.5 209q0 140 78 257
t210.5 183.5t288.5 66.5q155 0 287.5 -66.5t212 -185.5t79.5 -265q0 -135 -48 -250.5t-129.5 -193t-188.5 -121.5t-224 -44z" />
    <glyph glyph-name="uni0E52" unicode="&#xe52;" horiz-adv-x="1401" 
d="M779 508v135q0 49 -7.5 92.5t-25 83.5t-50.5 63.5t-78 23.5q-83 0 -132.5 -82.5t-49.5 -205.5q0 -121 50 -205t134 -84v-90q-121 0 -197.5 108t-76.5 271t75.5 270.5t196.5 107.5q138 0 204 -129q66 129 208 129q111 0 179.5 -89.5t68.5 -263.5v-197q0 -120 -53.5 -222.5
t-147.5 -163t-206 -60.5h-345q-170 0 -286 131t-116 315v599q0 157 -52 181l35 83q58 -24 82 -85t24 -177v-599q0 -149 93.5 -253.5t221.5 -104.5h347q128 0 220.5 104.5t92.5 253.5v197q0 50 -7 94t-24 84.5t-49.5 64.5t-77.5 24q-46 0 -79 -24t-50 -64.5t-24.5 -84.5
t-7.5 -94v-137h-90z" />
    <glyph glyph-name="uni0E53" unicode="&#xe53;" horiz-adv-x="1401" 
d="M654 0v645q0 51 -9.5 95.5t-31.5 84.5t-64.5 63.5t-100.5 23.5q-104 0 -168.5 -120.5t-64.5 -298.5q0 -113 27.5 -207t81.5 -153t126 -59v-89q-81 0 -145 45.5t-101.5 121t-56.5 162.5t-19 179q0 91 19 177.5t56 162t101 121.5t146 46q173 0 251 -147q38 74 103.5 110.5
t146.5 36.5q61 0 113 -21t93 -62.5t64.5 -111t23.5 -160.5v-645h-90v645q0 51 -9.5 95.5t-31.5 84.5t-64 63.5t-101 23.5q-58 0 -100.5 -23.5t-64.5 -63.5t-31.5 -84.5t-9.5 -95.5v-645h-89z" />
    <glyph glyph-name="uni0E54" unicode="&#xe54;" horiz-adv-x="1401" 
d="M1267 1280h87q0 -91 -21.5 -161.5t-56 -113t-82.5 -69.5t-95 -37t-99 -10q-34 0 -145 12.5t-204 12.5q-134 0 -245.5 -54t-175.5 -147t-64 -203q0 -82 35 -161t95.5 -140t148.5 -98t187 -37q47 0 122 16q-63 47 -96.5 109.5t-33.5 125.5q0 96 71.5 162t195.5 66v-90
q-88 0 -132.5 -40.5t-44.5 -100.5q0 -59 45 -119t134 -96q5 0 48.5 3.5t66.5 3.5q165 0 288 -58l-38 -81q-104 52 -248 52q-88 0 -203.5 -21t-172.5 -21q-116 0 -220.5 43.5t-177 115.5t-115 167.5t-42.5 196.5q0 138 79 251.5t211.5 177t288.5 63.5q96 0 209.5 -12
t138.5 -12q261 0 261 304z" />
    <glyph glyph-name="uni0E55" unicode="&#xe55;" horiz-adv-x="1401" 
d="M1267 1280h87q0 -91 -21.5 -161.5t-56 -113t-82.5 -69.5t-95 -37t-99 -10q-30 0 -145 12.5t-204 12.5q-134 0 -245.5 -54t-175.5 -147t-64 -203q0 -82 35 -161t95.5 -140t148.5 -98t187 -37q47 0 122 16q-63 47 -96.5 109.5t-33.5 125.5q0 96 71.5 162t195.5 66v-90
q-88 0 -132.5 -40.5t-44.5 -100.5q0 -59 45 -119t134 -96q5 0 48.5 3.5t66.5 3.5q165 0 288 -58l-38 -81q-104 52 -248 52q-88 0 -203.5 -21t-172.5 -21q-116 0 -220.5 43.5t-177 115.5t-115 167.5t-42.5 196.5q0 180 130 312t325 167q-28 47 -28 94q0 70 54.5 122.5
t133.5 52.5q77 0 132.5 -50t55.5 -123q0 -53 -29 -96q21 -1 74.5 -6t78.5 -5q261 0 261 304zM593 1085q0 -31 24.5 -57t85.5 -28q37 4 62 29t25 56q0 35 -28.5 61.5t-69.5 26.5q-42 0 -70.5 -26.5t-28.5 -61.5z" />
    <glyph glyph-name="uni0E56" unicode="&#xe56;" horiz-adv-x="1401" 
d="M438 553v-85q-92 0 -140 -43.5t-48 -102.5q0 -40 23.5 -81.5t69.5 -79.5t126.5 -62.5t181.5 -24.5q204 0 346 124t142 295t-142.5 297t-345.5 126q-112 0 -234 -37.5t-184 -90.5l-69 -60l-6 90q-6 82 -54 172.5t-110 151.5t-113 73l21 86q103 -23 203 -146.5t134 -259.5
q84 50 198 77.5t214 27.5q156 0 289 -66.5t211 -183.5t78 -257q0 -141 -78 -258t-211 -183.5t-289 -66.5q-113 0 -208 29t-155.5 76.5t-93.5 107.5t-33 124q0 98 74.5 164.5t202.5 66.5z" />
    <glyph glyph-name="uni0E57" unicode="&#xe57;" horiz-adv-x="1401" 
d="M549 391v296q0 60 -17 108.5t-61 82.5t-110 34q-99 0 -161.5 -118.5t-62.5 -291.5q0 -174 62.5 -292t161.5 -118v-90q-139 0 -226.5 142.5t-87.5 359.5q0 142 39 255.5t111 178.5t164 65q161 0 232 -134q66 134 215 134q127 0 205.5 -139.5t78.5 -359.5q0 -266 -105 -403
q134 25 197 120t63 283v543q0 27 0.5 43t3.5 47t10 53t19 47t32 43t47 29l31 -83q-53 -23 -53 -179v-543q0 -137 -32.5 -235t-95 -156t-144.5 -85t-190 -28h-98l29 90q85 0 139.5 119t54.5 293q0 173 -54.5 291.5t-139.5 118.5q-83 0 -125.5 -65.5t-42.5 -156.5v-299h-89z
" />
    <glyph glyph-name="uni0E58" unicode="&#xe58;" horiz-adv-x="1401" 
d="M1202 284h94q0 -147 -86.5 -223t-231.5 -76q-91 0 -176.5 60.5t-141.5 162.5l-85 -225q-86 4 -158 25.5t-122 54t-89 77t-62.5 90.5t-38.5 97.5t-20.5 94.5t-5.5 86q0 138 78.5 251.5t210.5 177t288 63.5q96 0 209.5 -12t137.5 -12q262 0 262 304h89q0 -91 -21.5 -161.5
t-55.5 -113.5t-81.5 -70.5t-94 -38t-98.5 -10.5q-35 0 -146.5 13t-202.5 13q-206 0 -346 -117.5t-140 -286.5t92 -291t261 -138l99 252h85q35 -113 111.5 -185t159.5 -72q226 0 226 210z" />
    <glyph glyph-name="uni0E59" unicode="&#xe59;" horiz-adv-x="1401" 
d="M705 293h96q0 -146 -81.5 -227t-238.5 -81q-71 0 -140.5 41t-124 110t-88.5 167t-34 205q0 106 35.5 200t94.5 159.5t136.5 104t160.5 38.5q193 0 323 -160q71 156 199 156q88 0 153 -77q53 112 53 262q0 81 -8 146l89 13q9 -69 9 -159q0 -255 -143 -428
q-14 31 -18.5 40.5t-21.5 38t-30 40t-35 23t-46 11.5q-44 0 -76.5 -35.5t-62.5 -121.5q141 -244 215 -750l-89 -11q-33 220 -77 385.5t-92 266.5t-107 163t-114.5 84.5t-120.5 22.5q-127 0 -232 -118t-105 -294q0 -94 27 -177t70 -138t95 -87t103 -32q103 0 164.5 53
t61.5 166z" />
    <glyph glyph-name="uni0E5A" unicode="&#xe5a;" horiz-adv-x="1344" 
d="M1090 0v1194h89v-1194h-89zM875 0v1027q-36 -46 -81.5 -88t-105.5 -82.5t-134.5 -65t-150.5 -24.5q-108 0 -193.5 56t-85.5 151t82 165t195 70v-90q-82 0 -137.5 -47t-55.5 -98q0 -33 22 -57.5t55.5 -36.5t63 -17.5t52.5 -5.5q72 0 144.5 28.5t126.5 71t98.5 90.5
t69.5 86.5t31 60.5h90v-1194h-86z" />
    <glyph glyph-name="uni0E5B" unicode="&#xe5b;" horiz-adv-x="2661" 
d="M566 812q51 0 90.5 -27t61.5 -71q6 20 6 63q0 145 -63.5 243.5t-167.5 98.5q-87 0 -160 -72t-114.5 -194.5t-41.5 -267.5q0 -103 24 -190.5t62.5 -145t87.5 -98.5t98 -59t95 -18q74 0 134.5 20.5t119 77t98.5 147.5t64.5 242t24.5 351v82q0 23 13.5 37t31.5 14
q33 0 42 -35l157 -583l98 475q12 42 45 42q35 0 45 -47l112 -397l81 318q7 22 18.5 34.5t23.5 12.5q25 0 40 -43l96 -276l57 197q13 56 33 56t47 -45l83 -126q105 45 197 45q59 0 147.5 -37.5t136.5 -37.5q37 0 84 10t52 10q17 0 17 -11q0 -20 -55.5 -44.5t-97.5 -24.5
q-56 0 -149 23.5t-135 23.5q-85 0 -191 -55q-15 -9 -32.5 -3t-27.5 22l-49 75l-70 -239q-14 -41 -40 -41q-27 0 -42 39l-94 264l-85 -340q-5 -21 -18 -33t-27 -12q-31 0 -40 43l-103 391l-98 -472q-12 -47 -43 -47q-32 0 -45 47l-128 468q-61 -707 -523 -707q-80 0 -159 39
t-146.5 111t-109.5 189.5t-42 260.5q0 169 49 310.5t142 227.5t210 86q147 0 238 -123t91 -319q0 -172 -71 -278t-185 -106q-79 0 -130 63.5t-51 151.5q0 86 51.5 150t129.5 64zM472 598q0 -51 27.5 -88.5t62.5 -37.5q29 0 49.5 13t31 34t15 40.5t4.5 38.5q0 52 -30 89
t-66 37q-35 0 -64.5 -36.5t-29.5 -89.5z" />
    <glyph glyph-name="zerowidthspace" unicode="&#x200b;" 
 />
    <glyph glyph-name="zerowidthnonjoiner" unicode="&#x200c;" 
 />
    <glyph glyph-name="zerojoin" unicode="&#x200d;" 
 />
    <glyph glyph-name="afii299" unicode="&#x200e;" 
 />
    <glyph glyph-name="afii300" unicode="&#x200f;" 
 />
    <glyph glyph-name="endash" unicode="&#x2013;" horiz-adv-x="530" 
d="M530 571v-125h-530v125h530z" />
    <glyph glyph-name="emdash" unicode="&#x2014;" horiz-adv-x="1125" 
d="M1128 571v-125h-1128v125h1128z" />
    <glyph glyph-name="quoteleft" unicode="&#x2018;" horiz-adv-x="523" 
d="M250 1083q-49 0 -86.5 37t-37.5 104q0 84 42 159.5t112 129.5h76q-56 -43 -92 -108t-36 -120q3 0 10.5 1.5t11.5 1.5q43 0 72.5 -30.5t29.5 -73.5q0 -41 -30 -71t-72 -30z" />
    <glyph glyph-name="quoteright" unicode="&#x2019;" horiz-adv-x="523" 
d="M231 1506q47 0 86 -36t39 -103q0 -82 -43 -158.5t-112 -131.5h-75q53 43 89.5 110.5t36.5 119.5q-6 -2 -21 -2q-42 0 -72.5 29.5t-30.5 71.5q0 41 30.5 70.5t72.5 29.5z" />
    <glyph glyph-name="quotesinglbase" unicode="&#x201a;" horiz-adv-x="523" 
d="M289 171q48 0 86.5 -37t38.5 -104q0 -83 -41.5 -159t-110.5 -131h-76q54 44 91 110t37 118q-3 0 -12 -1t-13 -1q-41 0 -71 30.5t-30 72.5q0 41 30 71.5t71 30.5z" />
    <glyph glyph-name="quotedblleft" unicode="&#x201c;" horiz-adv-x="737" 
d="M250 1083q-49 0 -86.5 37t-37.5 104q0 84 42 159.5t112 129.5h76q-56 -43 -92 -108t-36 -120q3 0 10.5 1.5t11.5 1.5q43 0 72.5 -30.5t29.5 -73.5q0 -41 -30 -71t-72 -30zM519 1083q-49 0 -87.5 37t-38.5 104q0 83 42.5 159t113.5 130h75q-55 -43 -91 -108t-36 -120
q3 0 10 1.5t12 1.5q42 0 71.5 -30.5t29.5 -73.5q0 -41 -29.5 -71t-71.5 -30z" />
    <glyph glyph-name="quotedblright" unicode="&#x201d;" horiz-adv-x="737" 
d="M500 1506q47 0 85.5 -36t38.5 -103q0 -81 -42.5 -158t-111.5 -132h-77q54 43 91 110.5t37 119.5q-6 -2 -21 -2q-42 0 -73 29.5t-31 71.5q0 41 31 70.5t73 29.5zM231 1506q47 0 86 -36t39 -103q0 -82 -43 -158.5t-112 -131.5h-75q53 43 89.5 110.5t36.5 119.5
q-6 -2 -21 -2q-42 0 -72.5 29.5t-30.5 71.5q0 41 30.5 70.5t72.5 29.5z" />
    <glyph glyph-name="quotedblbase" unicode="&#x201e;" horiz-adv-x="737" 
d="M500 188q47 0 85.5 -37t38.5 -104q0 -82 -42.5 -158.5t-111.5 -130.5h-77q54 43 91 109.5t37 119.5q-3 0 -10.5 -1t-10.5 -1q-42 0 -73 30.5t-31 71.5t31 71t73 30zM231 188q47 0 86 -37t39 -104q0 -82 -43 -158.5t-112 -130.5h-75q53 43 89.5 109.5t36.5 119.5
q-3 0 -10.5 -1t-10.5 -1q-42 0 -72.5 30.5t-30.5 71.5t30.5 71t72.5 30z" />
    <glyph glyph-name="dagger" unicode="&#x2020;" horiz-adv-x="1168" 
d="M628 -286h-88l15 1241l-412 -15v90l412 -16l-15 479h88l-13 -479l412 16v-90l-412 15z" />
    <glyph glyph-name="daggerdbl" unicode="&#x2021;" horiz-adv-x="1168" 
d="M628 -286h-88l15 564l-412 -16v90l412 -14v533l-412 -14v90l412 -16l-15 562h88l-13 -562l412 16v-90l-412 14v-533l412 14v-90l-412 16z" />
    <glyph glyph-name="bullet" unicode="&#x2022;" horiz-adv-x="989" 
d="M143 598q0 148 103.5 252.5t248.5 104.5q146 0 249.5 -104.5t103.5 -252.5t-103.5 -253.5t-249.5 -105.5q-145 0 -248.5 105.5t-103.5 253.5z" />
    <glyph glyph-name="ellipsis" unicode="&#x2026;" horiz-adv-x="1765" 
d="M203 69q0 34 25 58.5t58 24.5q34 0 58.5 -24.5t24.5 -58.5q0 -33 -25 -58.5t-58 -25.5t-58 25.5t-25 58.5zM1397 69q0 34 24.5 58.5t58.5 24.5t59.5 -24.5t25.5 -58.5q0 -33 -25.5 -58.5t-59.5 -25.5q-33 0 -58 25.5t-25 58.5zM803 69q0 34 25 58.5t58 24.5
q34 0 58.5 -24.5t24.5 -58.5q0 -33 -25 -58.5t-58 -25.5t-58 25.5t-25 58.5z" />
    <glyph glyph-name="perthousand" unicode="&#x2030;" horiz-adv-x="2213" 
d="M1104 566q121 0 207 -85t86 -206t-86 -206.5t-207 -85.5t-206.5 85.5t-85.5 206.5t85.5 206t206.5 85zM902 275q0 -83 59 -142t143 -59q85 0 144 58.5t59 142.5q0 83 -59 141t-144 58t-143.5 -58t-58.5 -141zM1852 567q120 0 205 -86t85 -207t-85 -206t-205 -85
q-122 0 -208 85t-86 206t86.5 207t207.5 86zM1647 274q0 -83 59.5 -141t145.5 -58q83 0 142 58.5t59 140.5q0 84 -59 142.5t-142 58.5q-86 0 -145.5 -58.5t-59.5 -142.5zM365 1502q121 0 206 -86t85 -207q0 -122 -85 -207.5t-206 -85.5t-207 86t-86 207t86 207t207 86z
M161 1209q0 -82 59 -140.5t145 -58.5q84 0 142.5 58.5t58.5 140.5t-58.5 140.5t-142.5 58.5q-86 0 -145 -58.5t-59 -140.5zM1209 1484h109l-1058 -1493h-110z" />
    <glyph glyph-name="guilsinglleft" unicode="&#x2039;" horiz-adv-x="472" 
d="M293 867h110l-258 -359l258 -358h-110l-257 358z" />
    <glyph glyph-name="guilsinglright" unicode="&#x203a;" horiz-adv-x="472" 
d="M72 867h109l257 -359l-257 -358h-109l257 358z" />
    <glyph glyph-name="fraction" unicode="&#x2044;" horiz-adv-x="1177" 
d="M1063 1493h110l-1059 -1493h-112z" />
    <glyph glyph-name="Euro" unicode="&#x20ac;" horiz-adv-x="1160" 
d="M1092 1388l-56 -74q-133 107 -277 107q-168 0 -306 -126t-193 -326h770l-30 -89h-758q-11 -68 -11 -135q0 -63 11 -134h788l-30 -90h-740q55 -198 193 -322.5t306 -124.5q155 0 277 99l56 -68q-154 -120 -331 -120q-206 0 -367.5 151t-220.5 385h-135l31 90h85
q-9 101 -9 134q0 38 9 135h-116l31 89h104q59 236 220 386.5t368 150.5q176 0 331 -118z" />
    <glyph glyph-name="trademark" unicode="&#x2122;" horiz-adv-x="1713" 
d="M645 1493v-79h-213v-669h-76v669h-213v79h502zM1397 1262l-267 -534l-252 537l-101 -515h-81l152 761l287 -605l291 600l148 -761h-79z" />
    <glyph glyph-name="uni25CC" unicode="&#x25cc;" horiz-adv-x="1389" 
d="M1027 305q39 0 66.5 -28.5t27.5 -68.5q0 -39 -27.5 -66.5t-66.5 -27.5q-40 0 -68 27.5t-28 66.5q0 40 28 68.5t68 28.5zM340 305q39 0 67.5 -28.5t28.5 -68.5q0 -39 -28.5 -66.5t-67.5 -27.5t-67.5 27.5t-28.5 66.5q0 40 28.5 68.5t67.5 28.5zM1027 931q39 0 66.5 -28
t27.5 -68q0 -38 -27.5 -66t-66.5 -28q-40 0 -68 28t-28 66q0 40 28 68t68 28zM698 154q39 0 68 -28t29 -66q0 -39 -29 -67.5t-68 -28.5t-67.5 28.5t-28.5 67.5q0 38 29 66t67 28zM340 931q39 0 67.5 -28t28.5 -68q0 -38 -29 -66t-67 -28t-67 28t-29 66q0 40 28.5 68t67.5 28
zM222 634q38 0 66 -29t28 -67q0 -40 -28 -69t-66 -29q-40 0 -68 29t-28 69q0 39 28 67.5t68 28.5zM698 1110q39 0 68 -28t29 -68q0 -38 -29 -66t-68 -28q-38 0 -67 28t-29 66q0 40 28.5 68t67.5 28zM1171 634q38 0 66 -29t28 -67q0 -40 -28 -69t-66 -29q-40 0 -68.5 29
t-28.5 69q0 39 28.5 67.5t68.5 28.5z" />
    <glyph glyph-name="uni0E10.descless" unicode="&#xf700;" horiz-adv-x="1168" 
d="M914 643v120q0 148 -104.5 252t-252.5 104q-147 0 -250.5 -104t-103.5 -252h-89q0 121 59.5 224t161.5 162.5t222 59.5q140 0 265 -88l111 77l52 -77l-96 -62q114 -120 114 -296v-763h-89v553h-357l32 90h325z" />
    <glyph glyph-name="uni0E34.left" unicode="&#xf701;" 
d="M-361 1439v-89h-859l58 89h801z" />
    <glyph glyph-name="uni0E35.left" unicode="&#xf702;" 
d="M-450 1439v116h89v-205h-859l58 89h712z" />
    <glyph glyph-name="uni0E36.left" unicode="&#xf703;" 
d="M-427 1623q56 0 97 -40.5t41 -96.5q0 -55 -41 -95.5t-97 -40.5h-793l58 89h607q-9 18 -9 47q0 56 40.5 96.5t96.5 40.5zM-495 1486q0 -29 19.5 -49t48.5 -20q30 0 49 20t19 49q0 30 -19 49.5t-49 19.5q-29 0 -48.5 -20t-19.5 -49z" />
    <glyph glyph-name="uni0E37.left" unicode="&#xf704;" 
d="M-645 1555h88v-116h107v116h89v-205h-859l58 89h517v116z" />
    <glyph glyph-name="uni0E48.low_left" unicode="&#xf705;" 
d="M-450 1350h-90v244h90v-244z" />
    <glyph glyph-name="uni0E49.low_left" unicode="&#xf706;" 
d="M-835 1350v107q0 45 -45 45h-79l30 89h49q36 0 62.5 -11.5t40 -27.5t21.5 -36.5t9.5 -33.5t1.5 -25v-18h378l-29 -89h-439z" />
    <glyph glyph-name="uni0E4A.low_left" unicode="&#xf707;" 
d="M-553 1630v-191h293l-29 -89h-354v188l-232 -175l-11 72q-4 16 -6.5 26.5t-13 33t-23.5 36t-37.5 25t-54.5 11.5q-56 0 -80.5 -21.5t-24.5 -48.5q0 -23 16.5 -40.5t43.5 -17.5h21v-89h-21q-66 0 -109 45t-43 102q0 66 51.5 113t143.5 47q73 0 125 -39t76 -103l157 115
h112z" />
    <glyph glyph-name="uni0E4B.low_left" unicode="&#xf708;" 
d="M-626 1442v83h86v94h90v-90h85v-90h-85v-89h-90v92h-86z" />
    <glyph glyph-name="uni0E4C.low_left" unicode="&#xf709;" 
d="M-636 1350v64q0 17 5 37t18 43.5t41.5 39t69.5 15.5h182l-29 -90h-153q-20 0 -30.5 -8.5t-12 -16t-1.5 -20.5v-64h-90z" />
    <glyph glyph-name="uni0E48.low" unicode="&#xf70a;" 
d="M-168 1350h-90v244h90v-244z" />
    <glyph glyph-name="uni0E49.low" unicode="&#xf70b;" 
d="M-472 1350v107q0 45 -45 45h-76l29 89h47q41 0 69.5 -14t41.5 -36.5t18 -42.5t5 -41v-18h439l-29 -89h-499z" />
    <glyph glyph-name="uni0E4A.low" unicode="&#xf70c;" 
d="M-79 1350v190l-233 -173q-12 90 -26 122q-33 81 -119 81q-56 0 -80.5 -21t-24.5 -47q0 -25 16.5 -42.5t43.5 -17.5h21v-90h-21q-66 0 -109 45.5t-43 104.5q0 65 51 111t144 46q72 0 124.5 -38t76.5 -101l157 112h110v-193h293l-31 -89h-350z" />
    <glyph glyph-name="uni0E4B.low" unicode="&#xf70d;" 
d="M-342 1442v83h84v94h90v-90h87v-90h-87v-89h-90v92h-84z" />
    <glyph glyph-name="uni0E4C.low" unicode="&#xf70e;" 
d="M-436 1350v64q0 16 2.5 31.5t11 35t22.5 34t39.5 24.5t58.5 10h183l-31 -90h-152q-44 0 -44 -45v-64h-90z" />
    <glyph glyph-name="uni0E0D.descless" unicode="&#xf70f;" horiz-adv-x="1893" 
d="M168 0v553q0 60 32.5 115t79.5 91l-152 83q19 80 57.5 144.5t84 105t100 68t104 38.5t97.5 11q120 0 222 -59.5t161.5 -162.5t59.5 -224v-336q0 -149 91 -251t220 -102t221 102t92 251v767h90v-767q0 -182 -117.5 -312t-285.5 -130q-110 0 -202.5 60t-145 161.5
t-52.5 220.5v334q0 81 -30 150t-80 113.5t-113 69.5t-131 25q-117 0 -216 -66.5t-137 -193.5l167 -96q-66 -31 -96.5 -77t-30.5 -131v-465h118l-30 -90h-178z" />
    <glyph glyph-name="uni0E31.left" unicode="&#xf710;" 
d="M-726 1439h805l-62 -89h-831v205h88v-116z" />
    <glyph glyph-name="uni0E4D.left" unicode="&#xf711;" 
d="M-483 1591q55 0 96 -40.5t41 -97.5q0 -55 -41 -96t-96 -41t-96 41t-41 96q0 57 40.5 97.5t96.5 40.5zM-553 1453q0 -29 20.5 -48t49.5 -19q28 0 48.5 19t20.5 48q0 30 -20.5 50t-48.5 20q-29 0 -49.5 -20t-20.5 -50z" />
    <glyph glyph-name="uni0E47.left" unicode="&#xf712;" 
d="M-329 1623h-612q-60 0 -96.5 -30t-36.5 -64q0 -32 34.5 -60t87.5 -30l164 103l199 -107q30 -16 88 -16q42 0 87 14l31 -83q-65 -23 -118 -23q-75 0 -124 27l-156 88l-143 -92q-95 0 -166.5 48.5t-71.5 132.5q0 79 68.5 130.5t154.5 51.5h641z" />
    <glyph glyph-name="uni0E48.left" unicode="&#xf713;" 
d="M-361 1683h-89v244h89v-244z" />
    <glyph glyph-name="uni0E49.left" unicode="&#xf714;" 
d="M-643 1683v107q0 45 -44 45h-76l29 90h47q42 0 71.5 -14.5t41.5 -38t16.5 -42.5t4.5 -40v-17h380l-30 -90h-440z" />
    <glyph glyph-name="uni0E4A.left" unicode="&#xf715;" 
d="M-177 1683v190l-233 -172l-11 72q-27 132 -134 132q-56 0 -80.5 -22t-24.5 -48q0 -23 16.5 -41.5t43.5 -18.5h21v-90h-21q-66 0 -109 46t-43 104q0 66 51.5 113t143.5 47q72 0 124.5 -39t76.5 -102l157 113h109v-194h293l-30 -90h-350z" />
    <glyph glyph-name="uni0E4B.left" unicode="&#xf716;" 
d="M-538 1775v85h88v92h89v-90h86v-89h-86v-90h-89v92h-88z" />
    <glyph glyph-name="uni0E4C.left" unicode="&#xf717;" 
d="M-450 1683v65q0 17 6 37t19 43t41.5 38.5t67.5 15.5h182l-30 -89h-152q-45 0 -45 -45v-65h-89z" />
    <glyph glyph-name="uni0E38.low" unicode="&#xf718;" 
d="M-365 -483h197v-365h-90v275h-135z" />
    <glyph glyph-name="uni0E39.low" unicode="&#xf719;" 
d="M-690 -483h141v-128q0 -61 43 -104.5t103 -43.5t102.5 43.5t42.5 104.5v128h90v-128q0 -99 -68 -168t-167 -69q-98 0 -166.5 69t-68.5 168v38h-80z" />
    <glyph glyph-name="uni0E3A.low" unicode="&#xf71a;" 
d="M-286 -564q0 32 21.5 52.5t51.5 20.5q32 0 54 -20.5t22 -52.5t-22 -53t-54 -21q-30 0 -51.5 21t-21.5 53z" />
    <glyph glyph-name="uni0E4D.high" unicode="&#xf71e;" 
d="M-213 1924q57 0 98 -40.5t41 -97.5q0 -56 -41 -96.5t-98 -40.5q-55 0 -95.5 41t-40.5 96q0 57 40.5 97.5t95.5 40.5zM-280 1786q0 -29 19.5 -48t47.5 -19q30 0 50 19t20 48q0 30 -20 50t-50 20q-28 0 -47.5 -20t-19.5 -50z" />
    <glyph glyph-name="uni0E47.high" unicode="&#xf71f;" 
d="M-202 1724q-62 -22 -112 -22q-71 0 -114 25l-138 78l-128 -83q-88 0 -154 44.5t-66 123.5q0 74 62.5 121t142.5 47h584l-31 -90h-554q-53 0 -84.5 -25.5t-31.5 -54.5q0 -27 29 -50t75 -26l149 93l182 -98q24 -13 77 -13q39 0 81 13z" />
    <glyph glyph-name="uni0E4E.high" unicode="&#xf720;" 
d="M99 2287q-49 8 -101 8q-114 0 -198 -43.5t-84 -108.5q0 -37 45 -62.5t96 -25.5h55l-71 -74h-25q-51 0 -96.5 -7.5t-88 -23.5t-67.5 -48t-25 -76q0 -30 36.5 -51t84.5 -21q70 0 97 40l62 -36q-47 -75 -159 -75q-81 0 -137.5 41t-56.5 106q0 86 59.5 139.5t159.5 74.5
q-42 39 -42 99q0 100 104.5 162.5t252.5 62.5q48 0 109 -8z" />
    <glyph glyph-name="uniF780" unicode="&#xf780;" horiz-adv-x="880" 
d="M626 0v763q0 53 -7 101t-25.5 96t-47.5 82t-76.5 55.5t-108.5 21.5q-109 0 -237 -109v100q118 99 237 99q91 0 160.5 -35t111 -97t62.5 -141t21 -173v-763h-90zM-455 1591q58 0 98.5 -40.5t40.5 -97.5q0 -56 -41 -96.5t-98 -40.5q-55 0 -95.5 41t-40.5 96q0 57 40.5 97.5
t95.5 40.5zM-521 1453q0 -29 18.5 -48t47.5 -19q31 0 50.5 19t19.5 48q0 30 -19.5 50t-50.5 20q-28 0 -47 -20t-19 -50z" />
    <glyph glyph-name="uniF781" unicode="&#xf781;" 
d="M-620 1574l63 -36q-24 -39 -70.5 -59t-100.5 -20q-89 0 -150.5 44.5t-61.5 115.5q0 96 67 154.5t181 80.5q-51 41 -51 113q0 108 115 177t279 69q60 0 116 -8l-11 -74q-51 9 -108 9q-128 0 -222.5 -49t-94.5 -124q0 -43 44 -69t104 -33h64l-71 -75h-27q-57 0 -107.5 -8
t-99 -26.5t-77 -55t-28.5 -86.5q0 -35 42.5 -59t96.5 -24q44 0 72 14t36 29z" />
    <glyph glyph-name="uniF782" unicode="&#xf782;" horiz-adv-x="1320" 
d="M618 340v645h87v-639q0 -51 8.5 -94.5t29 -83.5t59.5 -63.5t93 -23.5t93 23.5t59.5 63.5t29 83.5t8.5 94.5v355q0 84 -42.5 139t-120.5 55h-125v90h125q78 0 120.5 55t42.5 139v15h90v-15q0 -76 -34 -140t-94 -101q60 -39 94 -103t34 -139v-356q0 -177 -78 -266t-202 -89
q-71 0 -134 48t-101 125q-40 -77 -103 -125t-134 -48q-123 0 -201.5 89t-78.5 266v854h90v-854q0 -51 8.5 -95t29 -84t59.5 -63.5t93 -23.5q59 0 100 27t60.5 71t27 84.5t7.5 83.5z" />
    <glyph glyph-name="uniF783" unicode="&#xf783;" horiz-adv-x="1810" 
d="M218 859l167 -96q-66 -31 -96.5 -78t-30.5 -132v-463h118l-30 -90h-178v553q0 60 34 115t82 91l-156 83q19 80 57.5 144.5t84 105t100 68t104 38.5t97.5 11q120 0 222 -59.5t161.5 -162.5t59.5 -224v-1218h-89v1218q0 81 -30 149.5t-80 113t-113 69t-131 24.5
q-117 0 -216 -66.5t-137 -193.5zM1555 -455v1218q0 53 -7 101t-25.5 96t-47.5 82t-76.5 55.5t-108.5 21.5q-107 0 -240 -109v100q123 99 240 99q91 0 160.5 -35t111 -97t62.5 -141t21 -173v-1218h-90z" />
    <glyph glyph-name="uniF784" unicode="&#xf784;" horiz-adv-x="1810" 
d="M218 859l167 -96q-66 -31 -96.5 -78t-30.5 -132v-553h-196l30 90h76v463q0 60 34 115t82 91l-156 83q19 80 57.5 144.5t84 105t100 68t104 38.5t97.5 11q120 0 222 -59.5t161.5 -162.5t59.5 -224v-1218h-89v1218q0 81 -30 149.5t-80 113t-113 69t-131 24.5
q-117 0 -216 -66.5t-137 -193.5zM1555 -455v1218q0 53 -7 101t-25.5 96t-47.5 82t-76.5 55.5t-108.5 21.5q-107 0 -240 -109v100q123 99 240 99q91 0 160.5 -35t111 -97t62.5 -141t21 -173v-1218h-90z" />
    <glyph glyph-name="uni0E07.uline" horiz-adv-x="1221" 
d="M1057 -126v-90h-889v90h889zM258 867v-437q0 -148 103 -252t250 -104q148 0 252 104t104 252v320q0 148 -104 251t-252 103v90q184 0 315 -130.5t131 -313.5v-320q0 -183 -131 -314t-315 -131q-183 0 -313 131t-130 314v405z" />
    <glyph glyph-name="uni0E0D.uline" horiz-adv-x="1893" 
d="M1728 -126v-90h-1600v90h1600zM168 0v553q0 60 32.5 115t79.5 91l-152 83q19 80 57.5 144.5t84 105t100 68t104 38.5t97.5 11q120 0 222 -59.5t161.5 -162.5t59.5 -224v-336q0 -149 91 -251t220 -102t221 102t92 251v767h90v-767q0 -182 -117.5 -312t-285.5 -130
q-110 0 -202.5 60t-145 161.5t-52.5 220.5v334q0 81 -30 150t-80 113.5t-113 69.5t-131 25q-117 0 -216 -66.5t-137 -193.5l167 -96q-66 -31 -96.5 -77t-30.5 -131v-465h118l-30 -90h-178z" />
    <glyph glyph-name="uni0E19.uline" horiz-adv-x="1221" 
d="M1057 -126v-90h-889v90h889zM168 1194h90v-758q0 -53 7 -100.5t25.5 -95.5t47.5 -82t76 -55.5t107 -21.5q71 0 151.5 47t145 116.5t107 154.5t42.5 156v639h90v-1194h-90v333q-84 -144 -207 -243t-239 -99q-91 0 -160 35t-110.5 97.5t-62 141t-20.5 171.5v758z" />
    <glyph glyph-name="uni0E21.uline" horiz-adv-x="1221" 
d="M1057 -126v-90h-889v90h889zM168 1194h90v-639q0 -74 43 -160.5t107.5 -156.5t144.5 -117t148 -47q61 0 109 21.5t77 56.5t47.5 83t25.5 95t7 100v764h90v-764q0 -93 -21 -172t-63 -141t-111.5 -97t-160.5 -35q-116 0 -238 101.5t-205 246.5v-333h-90v1194z" />
    </font>
</defs>
</svg>
